<mxfile host="65bd71144e">
    <diagram id="prtHgNgQTEPvFCAcTncT" name="Page-1">
        <mxGraphModel dx="568" dy="1159" grid="1" gridSize="10" guides="1" tooltips="1" connect="1" arrows="1" fold="1" page="1" pageScale="1" pageWidth="1169" pageHeight="827" math="0" shadow="0">
            <root>
                <mxCell id="0"/>
                <mxCell id="1" parent="0"/>
                <mxCell id="dNxyNK7c78bLwvsdeMH5-19" value="GHEC Health Check App" style="swimlane;html=1;childLayout=stackLayout;resizeParent=1;resizeParentMax=0;horizontal=0;startSize=20;horizontalStack=0;fillColor=#647687;strokeColor=#314354;fontColor=#ffffff;" parent="1" vertex="1">
                    <mxGeometry y="200" width="1150" height="370" as="geometry"/>
                </mxCell>
                <mxCell id="j-x05HlP8JsFPRfZhArd-19" style="edgeStyle=orthogonalEdgeStyle;rounded=1;orthogonalLoop=1;jettySize=auto;html=1;endArrow=block;endFill=0;strokeWidth=1;dashed=1;" parent="dNxyNK7c78bLwvsdeMH5-19" source="j-x05HlP8JsFPRfZhArd-41" target="dNxyNK7c78bLwvsdeMH5-34" edge="1">
                    <mxGeometry relative="1" as="geometry">
                        <mxPoint x="671" y="60" as="targetPoint"/>
                        <Array as="points"/>
                    </mxGeometry>
                </mxCell>
                <mxCell id="j-x05HlP8JsFPRfZhArd-47" value="Event Trigger" style="edgeLabel;html=1;align=center;verticalAlign=middle;resizable=0;points=[];labelBackgroundColor=none;" parent="j-x05HlP8JsFPRfZhArd-19" vertex="1" connectable="0">
                    <mxGeometry x="-0.6118" y="-2" relative="1" as="geometry">
                        <mxPoint x="38" y="-103" as="offset"/>
                    </mxGeometry>
                </mxCell>
                <mxCell id="j-x05HlP8JsFPRfZhArd-50" style="edgeStyle=orthogonalEdgeStyle;rounded=1;orthogonalLoop=1;jettySize=auto;html=1;startArrow=none;startFill=0;endArrow=block;endFill=0;strokeWidth=1;dashed=1;" parent="dNxyNK7c78bLwvsdeMH5-19" source="j-x05HlP8JsFPRfZhArd-48" target="j-x05HlP8JsFPRfZhArd-49" edge="1">
                    <mxGeometry relative="1" as="geometry"/>
                </mxCell>
                <mxCell id="j-x05HlP8JsFPRfZhArd-60" value="Execution" style="edgeLabel;align=center;verticalAlign=middle;resizable=0;points=[];labelBorderColor=none;labelBackgroundColor=none;" parent="j-x05HlP8JsFPRfZhArd-50" vertex="1" connectable="0">
                    <mxGeometry x="0.0005" y="32" relative="1" as="geometry">
                        <mxPoint x="-2" y="-45" as="offset"/>
                    </mxGeometry>
                </mxCell>
                <mxCell id="dNxyNK7c78bLwvsdeMH5-27" value="" style="edgeStyle=orthogonalEdgeStyle;rounded=0;orthogonalLoop=1;jettySize=auto;html=1;dashed=1;endArrow=none;endFill=0;" parent="dNxyNK7c78bLwvsdeMH5-19" source="dNxyNK7c78bLwvsdeMH5-24" target="dNxyNK7c78bLwvsdeMH5-26" edge="1">
                    <mxGeometry relative="1" as="geometry"/>
                </mxCell>
                <mxCell id="dNxyNK7c78bLwvsdeMH5-20" value="Runtime" style="swimlane;html=1;startSize=20;horizontal=0;" parent="dNxyNK7c78bLwvsdeMH5-19" vertex="1">
                    <mxGeometry x="20" width="1130" height="120" as="geometry"/>
                </mxCell>
                <mxCell id="j-x05HlP8JsFPRfZhArd-56" style="edgeStyle=orthogonalEdgeStyle;rounded=1;orthogonalLoop=1;jettySize=auto;html=1;startArrow=none;startFill=0;endArrow=block;endFill=0;strokeWidth=2;" parent="dNxyNK7c78bLwvsdeMH5-20" source="j-x05HlP8JsFPRfZhArd-51" target="j-x05HlP8JsFPRfZhArd-55" edge="1">
                    <mxGeometry relative="1" as="geometry"/>
                </mxCell>
                <mxCell id="dNxyNK7c78bLwvsdeMH5-36" value="" style="rhombus;whiteSpace=wrap;html=1;fontFamily=Helvetica;fontSize=12;align=center;fillColor=#fad9d5;strokeColor=#ae4132;" parent="dNxyNK7c78bLwvsdeMH5-20" vertex="1">
                    <mxGeometry x="1081" y="60" width="40" height="40" as="geometry"/>
                </mxCell>
                <mxCell id="j-x05HlP8JsFPRfZhArd-51" value="Report" style="rounded=0;whiteSpace=wrap;html=1;fontFamily=Helvetica;fontSize=12;align=center;fillColor=#bac8d3;strokeColor=#23445d;" parent="dNxyNK7c78bLwvsdeMH5-20" vertex="1">
                    <mxGeometry x="851" y="60" width="79" height="40" as="geometry"/>
                </mxCell>
                <mxCell id="j-x05HlP8JsFPRfZhArd-21" value="Module Map" style="shape=document;whiteSpace=wrap;html=1;boundedLbl=1;fillColor=#b1ddf0;strokeColor=#10739e;" parent="dNxyNK7c78bLwvsdeMH5-20" vertex="1">
                    <mxGeometry x="451" y="10" width="80" height="40" as="geometry"/>
                </mxCell>
                <mxCell id="j-x05HlP8JsFPRfZhArd-22" value="Config data" style="shape=document;whiteSpace=wrap;html=1;boundedLbl=1;fillColor=#b1ddf0;strokeColor=#10739e;" parent="dNxyNK7c78bLwvsdeMH5-20" vertex="1">
                    <mxGeometry x="211" y="10" width="80" height="40" as="geometry"/>
                </mxCell>
                <mxCell id="dNxyNK7c78bLwvsdeMH5-34" value="Trigger Health Checks" style="rounded=0;whiteSpace=wrap;html=1;fontFamily=Helvetica;fontSize=12;align=center;fillColor=#bac8d3;strokeColor=#23445d;" parent="dNxyNK7c78bLwvsdeMH5-20" vertex="1">
                    <mxGeometry x="571" y="60" width="119" height="40" as="geometry"/>
                </mxCell>
                <mxCell id="dNxyNK7c78bLwvsdeMH5-23" value="" style="ellipse;whiteSpace=wrap;html=1;fillColor=#d5e8d4;strokeColor=#82b366;" parent="dNxyNK7c78bLwvsdeMH5-20" vertex="1">
                    <mxGeometry x="30" y="60" width="40" height="40" as="geometry"/>
                </mxCell>
                <mxCell id="j-x05HlP8JsFPRfZhArd-27" style="edgeStyle=orthogonalEdgeStyle;rounded=1;orthogonalLoop=1;jettySize=auto;html=1;endArrow=block;endFill=0;strokeWidth=2;" parent="dNxyNK7c78bLwvsdeMH5-20" source="dNxyNK7c78bLwvsdeMH5-23" target="dNxyNK7c78bLwvsdeMH5-24" edge="1">
                    <mxGeometry relative="1" as="geometry"/>
                </mxCell>
                <mxCell id="j-x05HlP8JsFPRfZhArd-26" style="edgeStyle=orthogonalEdgeStyle;rounded=1;orthogonalLoop=1;jettySize=auto;html=1;endArrow=block;endFill=0;strokeWidth=2;" parent="dNxyNK7c78bLwvsdeMH5-20" source="dNxyNK7c78bLwvsdeMH5-30" target="j-x05HlP8JsFPRfZhArd-7" edge="1">
                    <mxGeometry relative="1" as="geometry"/>
                </mxCell>
                <mxCell id="dNxyNK7c78bLwvsdeMH5-30" value="Load&lt;br&gt;Health Check&lt;br&gt;Modules" style="rounded=0;whiteSpace=wrap;html=1;fontFamily=Helvetica;fontSize=12;align=center;dashed=1;fillColor=#eeeeee;strokeColor=#36393d;" parent="dNxyNK7c78bLwvsdeMH5-20" vertex="1">
                    <mxGeometry x="331" y="60" width="80" height="40" as="geometry"/>
                </mxCell>
                <mxCell id="j-x05HlP8JsFPRfZhArd-25" style="edgeStyle=orthogonalEdgeStyle;rounded=1;orthogonalLoop=1;jettySize=auto;html=1;endArrow=block;endFill=0;strokeWidth=2;" parent="dNxyNK7c78bLwvsdeMH5-20" source="dNxyNK7c78bLwvsdeMH5-24" target="j-x05HlP8JsFPRfZhArd-3" edge="1">
                    <mxGeometry relative="1" as="geometry">
                        <Array as="points"/>
                    </mxGeometry>
                </mxCell>
                <mxCell id="dNxyNK7c78bLwvsdeMH5-24" value="Load &lt;br&gt;App Config" style="rounded=0;whiteSpace=wrap;html=1;fontFamily=Helvetica;fontSize=12;align=center;dashed=1;fillColor=#eeeeee;strokeColor=#36393d;" parent="dNxyNK7c78bLwvsdeMH5-20" vertex="1">
                    <mxGeometry x="92" y="60" width="80" height="40" as="geometry"/>
                </mxCell>
                <mxCell id="dNxyNK7c78bLwvsdeMH5-37" value="" style="edgeStyle=orthogonalEdgeStyle;rounded=1;orthogonalLoop=1;jettySize=auto;html=1;endArrow=block;endFill=0;strokeWidth=2;" parent="dNxyNK7c78bLwvsdeMH5-20" source="dNxyNK7c78bLwvsdeMH5-34" target="j-x05HlP8JsFPRfZhArd-48" edge="1">
                    <mxGeometry relative="1" as="geometry"/>
                </mxCell>
                <mxCell id="j-x05HlP8JsFPRfZhArd-52" style="edgeStyle=orthogonalEdgeStyle;rounded=1;orthogonalLoop=1;jettySize=auto;html=1;entryX=0;entryY=0.5;entryDx=0;entryDy=0;startArrow=none;startFill=0;endArrow=block;endFill=0;strokeWidth=2;" parent="dNxyNK7c78bLwvsdeMH5-20" source="j-x05HlP8JsFPRfZhArd-48" target="j-x05HlP8JsFPRfZhArd-51" edge="1">
                    <mxGeometry relative="1" as="geometry"/>
                </mxCell>
                <mxCell id="j-x05HlP8JsFPRfZhArd-48" value="Health Checks" style="rounded=0;whiteSpace=wrap;html=1;fontFamily=Helvetica;fontSize=12;align=center;fillColor=#bac8d3;strokeColor=#23445d;" parent="dNxyNK7c78bLwvsdeMH5-20" vertex="1">
                    <mxGeometry x="731" y="60" width="79" height="40" as="geometry"/>
                </mxCell>
                <mxCell id="j-x05HlP8JsFPRfZhArd-6" style="edgeStyle=orthogonalEdgeStyle;rounded=1;orthogonalLoop=1;jettySize=auto;html=1;entryX=0;entryY=0.5;entryDx=0;entryDy=0;endArrow=block;endFill=0;strokeWidth=2;" parent="dNxyNK7c78bLwvsdeMH5-20" source="j-x05HlP8JsFPRfZhArd-3" target="dNxyNK7c78bLwvsdeMH5-30" edge="1">
                    <mxGeometry relative="1" as="geometry"/>
                </mxCell>
                <mxCell id="j-x05HlP8JsFPRfZhArd-57" style="edgeStyle=orthogonalEdgeStyle;rounded=1;orthogonalLoop=1;jettySize=auto;html=1;startArrow=none;startFill=0;endArrow=block;endFill=0;strokeWidth=2;" parent="dNxyNK7c78bLwvsdeMH5-20" source="j-x05HlP8JsFPRfZhArd-55" target="dNxyNK7c78bLwvsdeMH5-36" edge="1">
                    <mxGeometry relative="1" as="geometry"/>
                </mxCell>
                <mxCell id="j-x05HlP8JsFPRfZhArd-55" value="Integration" style="rounded=0;whiteSpace=wrap;html=1;fontFamily=Helvetica;fontSize=12;align=center;fillColor=#bac8d3;strokeColor=#23445d;" parent="dNxyNK7c78bLwvsdeMH5-20" vertex="1">
                    <mxGeometry x="971" y="60" width="79" height="40" as="geometry"/>
                </mxCell>
                <mxCell id="j-x05HlP8JsFPRfZhArd-18" value="" style="html=1;verticalLabelPosition=bottom;align=center;labelBackgroundColor=#ffffff;verticalAlign=top;strokeWidth=2;strokeColor=#0080F0;shadow=0;dashed=0;shape=mxgraph.ios7.icons.reload;" parent="dNxyNK7c78bLwvsdeMH5-20" vertex="1">
                    <mxGeometry x="181" y="17" width="14" height="17" as="geometry"/>
                </mxCell>
                <mxCell id="j-x05HlP8JsFPRfZhArd-17" value="" style="html=1;verticalLabelPosition=bottom;align=center;labelBackgroundColor=#ffffff;verticalAlign=top;strokeWidth=2;strokeColor=#0080F0;shadow=0;dashed=0;shape=mxgraph.ios7.icons.reload;" parent="dNxyNK7c78bLwvsdeMH5-20" vertex="1">
                    <mxGeometry x="421" y="17" width="14" height="17" as="geometry"/>
                </mxCell>
                <mxCell id="j-x05HlP8JsFPRfZhArd-3" value="Watch &lt;br&gt;App Config" style="rounded=0;whiteSpace=wrap;html=1;fontFamily=Helvetica;fontSize=12;align=center;fillColor=#bac8d3;strokeColor=#23445d;" parent="dNxyNK7c78bLwvsdeMH5-20" vertex="1">
                    <mxGeometry x="211" y="60" width="80" height="40" as="geometry"/>
                </mxCell>
                <mxCell id="j-x05HlP8JsFPRfZhArd-7" value="Watch &lt;br&gt;Health Ceck Modules" style="rounded=0;whiteSpace=wrap;html=1;fontFamily=Helvetica;fontSize=12;align=center;fillColor=#bac8d3;strokeColor=#23445d;" parent="dNxyNK7c78bLwvsdeMH5-20" vertex="1">
                    <mxGeometry x="451" y="60" width="80" height="40" as="geometry"/>
                </mxCell>
                <mxCell id="dNxyNK7c78bLwvsdeMH5-21" value="Initialize" style="swimlane;html=1;startSize=20;horizontal=0;" parent="dNxyNK7c78bLwvsdeMH5-19" vertex="1">
                    <mxGeometry x="20" y="120" width="1130" height="120" as="geometry"/>
                </mxCell>
                <mxCell id="j-x05HlP8JsFPRfZhArd-1" value="Load &lt;br&gt;Health Check Modules" style="rounded=0;whiteSpace=wrap;html=1;fontFamily=Helvetica;fontSize=12;align=center;fillColor=#bac8d3;strokeColor=#23445d;" parent="dNxyNK7c78bLwvsdeMH5-21" vertex="1">
                    <mxGeometry x="331" y="20" width="80" height="40" as="geometry"/>
                </mxCell>
                <mxCell id="dNxyNK7c78bLwvsdeMH5-26" value="Load &lt;br&gt;App Config" style="rounded=0;whiteSpace=wrap;html=1;fontFamily=Helvetica;fontSize=12;align=center;fillColor=#bac8d3;strokeColor=#23445d;" parent="dNxyNK7c78bLwvsdeMH5-21" vertex="1">
                    <mxGeometry x="92" y="20" width="80" height="40" as="geometry"/>
                </mxCell>
                <mxCell id="4" style="edgeStyle=orthogonalEdgeStyle;rounded=1;html=1;startArrow=none;startFill=0;endArrow=block;endFill=0;dashed=1;" parent="dNxyNK7c78bLwvsdeMH5-21" source="dNxyNK7c78bLwvsdeMH5-26" target="6" edge="1">
                    <mxGeometry relative="1" as="geometry">
                        <mxPoint x="172" y="93" as="targetPoint"/>
                    </mxGeometry>
                </mxCell>
                <mxCell id="2" value="" style="shape=note;whiteSpace=wrap;html=1;backgroundOutline=1;darkOpacity=0.05;size=8;" parent="dNxyNK7c78bLwvsdeMH5-21" vertex="1">
                    <mxGeometry x="361" y="83" width="20" height="30" as="geometry"/>
                </mxCell>
                <mxCell id="5" style="edgeStyle=orthogonalEdgeStyle;rounded=1;html=1;startArrow=none;startFill=0;endArrow=block;endFill=0;dashed=1;" parent="dNxyNK7c78bLwvsdeMH5-21" source="j-x05HlP8JsFPRfZhArd-1" target="2" edge="1">
                    <mxGeometry relative="1" as="geometry">
                        <mxPoint x="182" y="103" as="targetPoint"/>
                        <mxPoint x="142" y="70.00000000000011" as="sourcePoint"/>
                    </mxGeometry>
                </mxCell>
                <mxCell id="6" value="" style="shape=note;whiteSpace=wrap;html=1;backgroundOutline=1;darkOpacity=0.05;size=8;" parent="dNxyNK7c78bLwvsdeMH5-21" vertex="1">
                    <mxGeometry x="122" y="83" width="20" height="30" as="geometry"/>
                </mxCell>
                <mxCell id="dNxyNK7c78bLwvsdeMH5-22" value="GitHub" style="swimlane;html=1;startSize=20;horizontal=0;" parent="dNxyNK7c78bLwvsdeMH5-19" vertex="1">
                    <mxGeometry x="20" y="240" width="1130" height="130" as="geometry"/>
                </mxCell>
                <mxCell id="j-x05HlP8JsFPRfZhArd-58" value="WebHooks" style="rounded=0;whiteSpace=wrap;html=1;labelBackgroundColor=none;strokeWidth=1;fillColor=#ffffff;" parent="dNxyNK7c78bLwvsdeMH5-22" vertex="1">
                    <mxGeometry x="590.5" width="80" height="20" as="geometry"/>
                </mxCell>
                <mxCell id="j-x05HlP8JsFPRfZhArd-49" value="" style="shape=image;verticalLabelPosition=bottom;verticalAlign=top;imageAspect=0;aspect=fixed;image=data:image/png,iVBORw0KGgoAAAANSUhEUgAAAlYAAAJVCAYAAAAcMbuxAAAVdHpUWHRSYXcgcHJvZmlsZSB0eXBlIGV4aWYAAHjarZrZdRw5tkX/YUWbAFzM5mBc63nwzO99IlMliiKru6qaFBlUZgzAHc4ApDv//3/X/YuvnIt3KddWeimer9RTt8Efzb++Xsfg0/P7+eIae7/6y+su5/cbxkuRY3y9Uc7rGAav558X1PR+ff76uqvr9Ye1943eb/y4YdST9aj9HuT7RtFer4f3/11/jceP8mE675+UyzO58j75t/9XgrE1pWjOTgzRP7/t9aSonxAHR/22aKa/Gn+n53eO5ff4ufc4wlcBvPf97qf4+fU+I/4Mx+tGP6ZVPsXp/XrIX8fvidLHEQV7n2I/39BXvz9C+Xv87t3t3vOa3UjFEa7yntSPKYbXtPYknPG5rPBd+cn8XZ/vznfzwy8etZnqdH7ynx6MiPP8sMMIN5znuMJiiMmOVY5mixzotRardVtPMpK+w7XqYo+bXFhcZC7ysv0xlvA8t+t5PKzx5B040wI3C8rmx2/3+YW/+/3Lje5VmYfwCuYTK8Zlqi+GoczpN2eRgnDfMc1PfIN7HfznLyU2ksH8hLkxweHn6xYzh5+1FZ88R58dpyb/SnKo+30DQsSzM4MJkQz4EmIOJfhqVkMgjo38DEZuMdkkAyG7bJtRWoqxkJxmejbX1PCca9leLwMvJILmiJXU9DhIVko5FfqtUULD5ZhTBplyzS33PEosqeRSSi3CqVFjTTXXUmtttdfRYkstt9Jqa6230a1HYCy7Xnrtrfc+Bg8daXCvwfmDF6bNONPMs8w62+xzLMpnpZVXWXW11dfYtuMGAtwuu+62+x4nHErppJNPOfW008+41NqNN918y6233X7HH1l7Z/XXrH3O3J9nLbyzZk+idF79mTVervXHLYLgJCtnZMxSIONVGaCgTTnzLaRkypxy5rtFF2M2RpmVnB2UMTKYTrB8wx+5+5m5b/PmiO5fzZt9lTmn1P0vMueUug+Z+z1vX2Rtjwdu45MgdSExBSEj7ccJpw1rQ7z07bHGVW5o2U5bI7RyMiMiRqPd4obv6domR2VfijTOSQe1RZx5eD0nErQOfO+QspA3f310373xV4+vG2UCuwjRvmdHyiPkeS3kvejkVMJdNgFrxSecAUkaIS/njLNGW9RROcWZV5oX9RJPX52IBTJ1bqk8BhzhxG3T/N5GuYyWmOhq2cdxYjvpDhqr60Z3rRn8rC0AHrNmnuEh2XUg3rtOqvvEa+POwsAjQa8L4KdyMpg6Y0eE0DxhOZiJf5eyfNKDCPh7R/eXLph3lD2SmlB1Hu5ZwlvBqCvZr5VO9YNCOKmvWg6tNNTlI5/Of237M+YYvaTpU1nE358A7LR6PZOudMByqxP93De1Q2lPQjRNISaioAIPoFdrX4RchUgqrXLO7mv6thF4lfREku7+flR+PX64EVTN+BOFAFp0X0nWLPD8hdj2f0iFLSfgSL3u2sOeBKCNfGOvYA7gguTKrV8hq9VDxssIRCSeBRQANWnGBkWBUssFCuzkpqAESrJTZcAJcah3cgGBGhnI2MtspuVbBkXAq4MORSusZqEd385ycdy0zscun+NRaqku4l8uoLNrvrtnY+ypF3RRtDRHLTmTKkTPzgVgGweyPNMutT2g/BLvirXZ6RvEqxuYK5PL9+5gAVCAVpn9cjqDqu3uQzXd6zTCMpMId3AtMrredf2kliCN2hH0nofVli+d7PfawN5QYa48lP3ARSebAxpvOjvfCpCHmmlh4NKjnmoFxdJFgSHLOoxPxfStZvOX2+9YD+JsdwUiQZDZz71vY8aFJJ/U9Ea7FXJKfjE1H9dALNZwQBMQGHa5DcZgfH1TMmmXstCQk1TfGq5KKO6cm0pHTy4mUCwPXUTwhx6ZGrwV4RL1sUlFOdc8IVoOAUOq1h02IQzwPQfQdSI1ibo/Gb0HosRK49QDjwDCJ5Kle0LaFea9QBLTcZoI5UH/3Ta55QmljXPm5xN/PW9MpkHDAu2lwbNruhPmpNhi6AXmobLpaE+tR8ZGYANxzdx2k4e8aQYalIqtFAY8AewNILZJ1e54cGD0s4xOhlMPsfTxzH5impTGHWmPGRO8euuswGBrgCZjAkFIns/Hn9scIQh3g6pzDoLHcA7RrAMoX7Nz3xMeT0INLs3PFiQ2xIS0Jo8E3xoRWG7fG6xtE8nmKMXtaSevygXWuftUe5y7oGw0yGA2dvaMe5TZ4Jh6N5BeiNHICMcGgtLowxM5bps0W6FERh4KX+gZIu+57W3+ZqTJmqQOSip0yVrtuEwdMVyME9oUFxh4MfJayIAi5dvvTOm0HVS1cexIpwIq9PDyeW/Qa5M8uB/WO55cg0LhFXD+fXHMBZTotuEskJ2KTHNRcnmuuWffxy24Kp6NgOm5TvolC62IuwoE5ksUYAEB6Jw6D6ARJ14J8Il07IYEbawb43ZAFkUDjoExbWVaWD2NPt+fRnRpnRboEKgEiXdaKJ2isNjppXhcyF1CtHpghiILC7IlrhFFRDU26iijPi+E0qoqp9YFZHmiCuh6w4mYaASC3OsPIF9nA01hG+o1MwFuWqZ00NmiJ+C9Us0X0c7AJ/MPug4S5ApahLJETwIacPpccRdEKq5vAB6eUXiQJBAQIPinL1VeEIhfUTb4qBoK6E50KWJew49oile7RmaXCxDROvOusAMoXOgKvoSklRhtiTGiGRMC5qyYMrGzCZeVbQEZmtUEQGQaISehV9t5/qoLD1BLa6wE9i/bm9pMdwmLwkVmmZqWAHMUdE4pLjIxa0BmkXgyfFSBYWym9l0JJsgWKmQWFDd3X3DCjIBOUNUxJIngQY31jmhobvYFDOohtSw1J7CjtiYEpAEkvSIdVHJHaqPOBSPkm3/toAd9zQH7XAfuqHzVGZAPAfVjV6LUrizAZpATfTdqopSQhAuf0siDFlaOA1d9fVqtqbHx9jUCafTSnhgC3KaFdcHEYEXOgdqiyi4+5+IysCQ5w7YdB8mI+8SvDiTsJoZKKIoTp0YIafB/Kv3QB5EJcO98oP8gzK2pPLpAjMzs+9JC0hjA4boOUYb8PRmumgOzQo0hc2/IjK2iGoDVllaMeGrysUGmOSFYCh4saROUnQdBdBykAkm8L2GOpQFtqGokJwlHTG+wHo0erXxjUriakLswKoIw9Ayao2/o6b2OLwktHlvY8VHwlDRYVZArDKkdEj4BH78wlUKpgpJwKE7cwRnkaU9SED49k0s7LpBy2cXoZB7e8W26nSc4l4KA4vNwEuutHp9rg1lFMNmjiWqbtCRyCJklrhCFAlCoArCZ6GACSATQbczi+Fkchisg33YOVeILZvlzz/bd0f36AlOvJL1LaUGYqLqoYMBzsWBMAjBIO7fNxBJSBxIBCujiXBy81FCZDZ2P+ChYWq6IMMoiz4BOQO96Ze2EOKxfLVVBHRcvbvAFAqJYO6O6KbxOsjS/i2dESQgLAwFSU1mEGoZB5C65A5oJ5m2RaqFblrtpjJxOJ6B4jaKjjLllTDd+DEaBVWiij56x5s3cweI4oXbscABGuBiZy2BzR6ciQtAotDEqEFztADBV+5IRizJAXN5DaT+NQmKlJuZTqq79vSR9Opp3Ae13Wnk1KuYJdYgcQqs2ZMJolpJvMgwGIHrMEm4RIkuQSigU8G0txgSOO8TdBqlbh7vB0RI6/hd1Q5mCo+P3FEB7qVwPWRFmnAd4BWsPuB/tQv5QxBkVnid+IIvWM0BbOp56lJ4PoptkGLR4Fj4HBgRceNbo7yy4VxoSJXi5UrzeWhcwNHloBM9OkJ2UdD0J1wX+UQmGSoxS94n0xIIHcHsgHNQZvpN6rEwWSONWH4VFz2M5OAeyOrljB6jJCtbsDDgRvZ32a0jun61C4NjLYrw3OfxiHksLzmXgnaSKJYRTvkbZoJNwhWjivgwrFx4dmChCSwE/hdWkgdDfdbrdO8jKjCnlLx+LWdAylqGyUb7Uez54ZwQzeANyJ0OJ8wiHMoaYxwZgJkZoX/HXlH/ySJKUgpxNeq1IIGcu0u5+8bTr0FMALY6HH2gtUv/RAEH06uIAtRnfeLSW7qZQIn9F5o3g4vwgawLcBSgbz79xwtPANmC5Pg7S6ClDyOOVsDAgEEX2563y3/XalEUpjCl40enxvcXU6R+UexGv5e5EGFVyirZPF8E3cN1bqIx6AgvR0bvZGDRDUeCwRJhj9BPNiOaCPiPaj6yhQXajO0kCKLaDOHYimiqyWvbIz29kjxavqFoGiJ1IwiOojOYiKj0jLVqUviE/gPfjRfEA9BsORzsF1ht5RV3tWlDBgXkcNXJ/KvvDY4z6AELxt+roikmJYA1WgtuinhkomdLSFzelrbkK0zPGCeaSSeomEBUTNoUldx20AIpM4oTZI2cbxYCQqo1/iDLDdAtw0p3hwcgzmoM75LFp6f1cuAc8HVemchHYEkiENGk9jGnmSnHGg78TB6GaFy3h0Z0+OaB9pRMrzwWoDM2wn62/b7zNt0eEFipgMjngHtV4Dkq1mFZmGThgyPzRxLjKiV07Er01R+0gdORCS3AHJuFYdijzgIhGZEAVaMxWBa90ILZecUX7aeXGA5Ub9z/jougMo0uozTrRQTwgYuk1ubkuQdRlNItUQepFS9jYJrTI/DNAgjHTgdCaS1GrcQGitoVQnnhICV8pXXgUH9zGx265ZBXxwaSY6j5m2GNwrHaHMSUDkHE1hrZXxb+gahZliQDCRpwNhgT0ugTOoj8gTAlgwDuhDruRWnjBcRPtyuDhVjKaAmE/ch3hEcwFSYJIAik2FqmQkgG2mXYsKKileEJxEcd1HV0mlb3y0xxBK/gHlFu90TjALh4hLI+MVdlFWkLz83YDtiKmjRAjXHaKyysfodfxFNdGc3lc6db20lUBZFQaYgPiyyPA+qi7Bt5yZcE3TbKZN2SE0Dpkt+AnEn4RMgrrUOVMbom/8Ey4LawsxY27xPXTZ5cWXLNUagBl2HNE/ezorjavTzTxuLJxpVcx8Hgj+JLZGITR0QETEpUO18YbSeAdX6a2G6QZGgWpC5C7tSjOcyPa8Xm4eWwLcQh71KeNOS9JWQR064autLFxk7wh4th6BWoLNk7Lk6hUCjsA0ai0hxkqCqTQxmVfeUNs2YXpIMQ1EOYIwQwnU0dSNG5MtLpRJB76D0TejGBkzGT2qMvcMB5mrWH5KTBM5r3CUR5JzsezRV4YrHT2Z6hPllBOaFliN5Tgxx6jgxLzAKGtDMFZ2wPf74GaUzMj0u4qCnwiPDLGTBAj0Ydp9dqlwWqjjYuYjGIDW+EnWGRp6Y85U8FUNjlOjpbUwvEG8eUMqT8g61kD23vmLBl9fNpM3toutFeSryJgFijGu/UBgsdC3Dg179IwB4vaHp4cGtnl6lq2VopredYmkYX+WTPAui1BlFw5GhbAgETd2Klk+gezZNGErJfuahK2FS1i/z1Cvrz5BESMFEU8AtAFC8SJV38+ajHwAVMLnEPfGD6znLQuDdOYBjwGxg9WxdMTEcE6ljKLFrG+BfBlsIeCxiztK1zoaMLZtdyFHiWjWlOjnbIm7J5VKK1Ntqa6q5lstYKYrzF05Dtyw5qgIaB+INCrLZqt5c6Z6FmtDCyolhFNWgSjNpt8Ar62N3Iz2/JotAKc0MRYNKwN6VtgiXGXRe9YXkW2l8dMWsYFIg8y3YS1n49VoIsuvh4/cbNWADzdoCpYWhFo2N8o47UaBE5bIuXQPij/gzF5yoYUUgcaJvaRCgSkiFIecBRW0qKiKLMMp3dUF3IRTqFLDpCAeHJXrR61glugYZRmliblBmJZTBkVKjtlPWirdty1r/rkcnNJHO4f4Syy1hg+lTyi9gnQeCbvWGfsodFQk3RNMb6QF8M2PQKiahzygqAdnVuSFtudz7kLKpBjaBDuOsUcVrXODM5pbQYdgRwpRHxLFgQh4Fx2D46iPLaTEnc1ApiznITAM0gLkNlNGcPaa3EMEDj40YVBBPXVfFwRCCNJomsQWnBHLmTN+26SeSgVEB2e6AOX3gdgBOJJtywTi2OLILP65aopJeLEK8h8oP02zAkMGhayok7hp/UF3UrI0eAqjfJaMa9Dq/XwiTyDtrBLcZOqC2epvrJkqwEKKBztv3qE5COkWin/0UO6b94gbhX6ikAWkIP76oicQOXhqprWmIFZ0A0nP55VTaRfbep6vHsmybvETt+HNboPE8mJXTna354V8phSuGDswsj56WURGhZ5UbHLUd8S4OSW2HOqFsQMQffsbWmDlU5ayIdKE+e1ke4wzMa1aMudwaGEkryBwzDYA+4EK/DwCUOkRWVrzQw+Mchk5dVgPoinHLwLzZK1bwboLhqNljG8yCMcHwlEZ5/cJPxl5LM+Toa3hMBaUQtDlZv25WfiIyj62sgJmjlQJSM4nNst4SEJWkHd3qQztB6NNEKWD3gHNvU0g7aaM3dEfJ8KfwNMBgXTvLe4nmaOgR7Q5VcOq6Nd8IcMBsG2zkMoWi98VjZpyEjb7y0hTQ/UHrVY04PD8meI3mulOWgtgcA/y4ycPcSuaA6sMBpCW5Q4YTs71KRJRAqwTxCYkHXsuvYZQBjBGsIAwYa9ofkwKQx/rFNgQvhlLmE3HYC+Ckl7iCknpgCwAjHRoWPGs0hGtOtBGPQQ0XWZeQEGkBuo+MUqpj4ucS+JgjnvmS2617oLfA4app15lRTVeaGToPeYZZQyoR7/1Lu7f2D686Z7eLCM33V3Swrr2cicQRkiAcpFsKEsnxFp5+VeUPoB9iPWQdehd6/W29YYCV7e3IhiGE9tP7vNeJzvQ+L9h6Do5k9EJFEWvEYzQTmAS0OqeiAIT6fNU3kyqTbApawk+fcsMK3/yQcHvjyKqPtx2jEaOIOhiou0EaArEc04YAQ5cY8qpPKFtQfkBSC0XwIMbqxXoEPwBFgIej4SR6CG04OarJ+zno8g3IlQyjCaGWWK0NOyxzLpZNqDrkSYA+onXDSCS1pjpX5hpYoAXTjTCWtgOca5yEZ6GLxCUw1+zw11ARtau0FbIBrQhf35BAiUzYi12YXsGUM7FPH5XA8Wxg6YwN23PucgkTaBqR+LyrAWfSs7ju8C6FxZ+nxDRRPo8yHPMk+ZEfmwMUca91brY+YAqCM6B9ualr0IzlFrQanapnBoBA+sF7lWyA4ytsSU57nCZ6m2+HzOxegk6iev+Fr3x3FlYdWkCFG62VVcDBIfWgZOtLmEgl/3wvkMDiWJekL5DG0hYGQq9EfhUWXkGH6HReB0JNvE90MqV29kieucgM2iT9aYTU0B99UKkI3D1CQ36kcfrfmNbt13OpWOuhvid/8GpnhiL5k7AqoAAAGFaUNDUElDQyBwcm9maWxlAAB4nH2RPUjDUBSFT1ulIhUHi4o4ZKhOFsWKOGoVilAh1AqtOpi89A+aNCQpLo6Ca8HBn8Wqg4uzrg6ugiD4A+Lm5qToIiXelxRaxHjh8T7Ou+fw3n2Av15mqtkxAaiaZaQScSGTXRWCr/ChHwMYR0xipj4nikl41tc9dVPdRXmWd9+f1aPkTAb4BOJZphsW8Qbx9Kalc94nDrOipBCfE48ZdEHiR67LLr9xLjjs55lhI52aJw4TC4U2ltuYFQ2VeIo4oqga5fszLiuctzir5Spr3pO/MJTTVpa5TmsYCSxiCSIEyKiihDIsRGnXSDGRovO4h3/I8YvkkslVAiPHAipQITl+8D/4PVszH5t0k0JxoPPFtj9GgOAu0KjZ9vexbTdOgMAzcKW1/JU6MPNJeq2lRY6A3m3g4rqlyXvA5Q4w+KRLhuRIAVr+fB54P6NvygJ9t0D3mju35jlOH4A0zSp5AxwcAqMFyl73eHdX+9z+7WnO7wfUPHLOycmg4QAAAAZiS0dEAP8A/wD/oL2nkwAAAAlwSFlzAABoRQAAaEUBxmOuIQAAAAd0SU1FB+UBFhcwOsJsW9YAACAASURBVHja7N33m2THfd/7d53u2dmM3QUWi8UiEyACEQgQJEGKSiRlS7REizIt2SJNS1eyKdHy/WuuLKcrXtmWTSuYtGRJlERKDCLFgJxzxi4WYXOe6a77w6nBznafnume6XDC+/U8zQUn9/ekz6mqUwWSNAN70r/bl31s84g/Y3PB91xiaSVJUl200itb9rGs59/VZEN8Phvx52QD/o4Ny/77IjefJEmalPaysDQotGQ1ea/ZOoKeJElSrYPSNOuWWTdJkpobAjT5gGq9pWYKlkCq34W9O8THxmwe2LjsNZ9eG3pec+Q9jEv/trlwWFYrnZey9G/vOSqmVzf920n/3UmvxfRaWPbvuZ7X2fQ6s+x1dhrbpPdfgK3ACXdbyWAlaXZ2AodHCFbrsBnYkq7/W5a9lh7I25RerYqXtAOcTq9T6XVy2etE+vfUpAMYkw/BkgxWUrO1l11sx3zRnSd/GG77ste2Za+21b/AInB82evYstdRxtDy1RuulpruOtZeMlhJWt8Fdowhagd5Q9eOntdmKz1Wp4AjPa/D6d+xhS1JBitJK2hxvkVinYFqC3Bxeu1Kr53kY5o0OwspYB1Kr7fT62TJArgkg5VULZvSVba7/gviReQTjV8C7E5haqsVrpQTKWC9CbyVXkcti2SwkrSK5Y/dryFQbQIuXfbaTd46pfo5mYLWG8tep9fzA5e3iEoyWEmV1OL8vABrsAu4jHxJvT3krVFqrreBg+n1Onl3oiSDlaQBdgN7U5jai116WtkJ4EAKWQfIW7hG5hOHksFKKp01PrG1C7h82ctuPa3HSWD/stehte7LDoSXDFbSVK3xCb6NwBXptY98qgNpUo4ArwGvpteZtYSrLYzhsUXJYCWpKEytYbzUnhSkrkxhSpqV14BXUsg6OOo325IlGayksYSpzujfclV6XUk+HYJUNkdTyHo5vYbezZ2oVDJYSSOZI59jagSbgKvT6yryhYalqjiXwtVL6TX0tA4OfJcMVtJAS61TQ3Z5bAWuSWHqGqunGnkxBawXyZ88lGSwkoawcyccPjzKd2wBrl0WqKS6WwpYLzDkGHa7CiWDlbSS+RSmrkv/Sk31AvB8+ves5ZAMVtIorlv2cvFi6byFFLCWXqvyiUIZrKQaGeGkvgd4F3A9sM3KSas6DjwLPMcapnCQDFZS/WxOQep68mVkJK3NgRSyngVOWQ4ZrKRmuQq4IQWqtuWQxmYxhatnyKdxkAxWUpXEGAlhqN14SwpT7yZf8FjSZL0JPJ1C1lBPFa5hUl7JYCWN0xBjqPalMHUDDkSXZmEhhaunyZfWWfWYBge8y2AllSlMZcCN6eUafVJ5vAY8lV5mJxmspFlpkw/eWCVUbQduIm+hcp0+qbyOkrdgPQkcG8PNlGSwkkYJVKu4LAWqm8iHaUiqhk4KV08Cr1sOGaykCRriLvXaFKaus1pS5T2fAtYLlkIGK2m6bgRuxvFTUh29BjxBPg5rvTdfksFKGqCVwtQtOF2C1ARvAo+nkOUsDDJYSWMyl8LULcAuyyE1zqEUsB4nn7pBMlhJRWlplTPk/LJAtcOKSY13ZFnAOms5ZLCShrMBeE96OWWCpF5HgcfS65zlkMFKjTTE0jPtFKZuxRYqSas7AjyaAlbhrCxLg9tdKkcGKzUpUJHC1K3AxVZM0ojeTgHr0UFf4NODMlipFoa4S7wRuA3YY7UkrdNB4BGGmKZBMlipbq5NgepKSyFpzF5JAWvgRKMu9CyDlSpjlSb3y8m7/G6wUpIm7Bny7sH9lkIGK1XKEOOodgC3k7dSSdI0PQI8TD7YfdSbQclgpelb4cQ0lwLV7cBmKyVpRk6lcPUwTjIqg5Uq6kbgDlx+RlJ5vAk8hAPcZbBSWQzR7Xd5ClTXWS1JJfV8CliOv5LBSqW1JQWqOzj/0I0klVU3hauHgJOWQwYrTU2MkVYIKw3wvAV4L7DTakmqmMPAg+RrEBZygLsMVpqWvSlQ2e0nqeqeTwHrgAFLBiuN3SqtVBuAO8m7/easlqSaWCDvGnwAF3iWwUrj0k53ZQNC1bvIW6kus1KSaup18tar5yyFDFaalO3krVS3WgpJDfEoeevVsaJP2jWoIi1LoOUniVj8qZuAHwOutkqSGuRS8jVNF4G3ej8ZVz93qoFssdJKd107yVupbrZKkhruCfLWq8OWQiuxxUqD7rRuIW+lutIKSRK70/mwQz6Du1TIFqsmBqmVn/jbAdyFrVSSNMgTwP0MWNhZzWaLVQNDVQhhUCvVjeStVFdZKUkaaDdwBfn0DG8P+iLHXjWTLVYC2EreSnWbpZCkkTxC3np1oihYgU8OGqxUO6ssnHxdClV7rJQkrcnBFK6eH/QFbfJHC2WwUg0MeOqvnQLV+3DRZElary5wXwpYi0Oeh2WwUlUstVINOJj3pEB1rZWSpLF6IQWsg0XhCgNW7Tl4vaahqpUGqBcMnHwP8KPY9SdJk7CT85OKXjAtw/JzctuAVVu2WNXMJuB08ac2k7dS3W6VJGkqHiZvvTrV+wm7BuvLFqua6VLYSnUF8BHgBiskSVOzh3xqhpP0rDe4/Dy9AzhjrWrDFqsaWOWpv9vIW6q2WClJmomT5C1Xj1gKg5WqaxNwN3b9SVJZPAzcS8GIjSxdkDvWqPLsCqx4chrQ9bcX+BHymdQlSeWwB9gFHKdnQtGYgpUztRusNEOLxQfhjSlUXWaFJKl0dqSb33P0LIezdD53KZxqsyuwYpamUoC+J0oC8H6c8FOSqmBpQtEfmqPqxRarioWqUDw/1UXkrVR3GJYlqRICsA/YBhwCzg66SJu6qrdhVW37yAepX2EpJKmSXiUf1P5a0Sed86pabLGqthuBDwOXWgpJqqzt5ONi+8ZdgS1WBitNy13k3X+bLYUkVd5G4KqUow5YjuqyK7CkVpj0cyP5IHXnp5KkenqYfFC7E7JXkC1W1QpVu8i7/m62SpJUW3vIuwcPM2Ay0Q04majBSusNVftSqLrGKklS7e3i/GSixy+4ThiqDFZad6i6PoWqPVZJkhpjO/nDSWfIp2S4gBOJlpNjrEpkwCO1t5KPqXKQuiQ10ynyMVePWorys8Wq3KHqbuAeYN4KSVJjzQFXpv/ebzkMVho9VM2lQHU3Lk8jScqvBVek68PrOGeowUr92unI6Okj3wJ8CKdTkCT12wtsAt4EFixH+TjGagZWGKS+k3w81Q1WSZK0gmfIx10dHvE6I4NV/UJVO4SiR2UvTaHqGqskSRrCiylcvdH7CdcXnB27AqccqkIIBPq6/y4nH1N1lVWSJA1pR3odo2CuKxmsah+q2iEQ+3f4q1Ko2muVJEkj2k4+kegJ4KjlMFg1JlSFFKp6XAd8kLwbUJKktdgKXEy+/M1hy2GwakSoKnA98IF0MEiStB6b0/XEWdoNVo0MVe8mb6naaZUkSWOyCdidwtXbF1yPrI3Bqg6hqlXc/XdTClXbrZIkacw2kg8vOQu8ZTkMVrUJVQOe/ruZvPtvm1WSJE3IPHnL1TnDlcGqFqGqlUJVzxwitxiqJElTDlcL5LO0y2BVzVDVTmOqCkLV+8mf3JAkaRo2rBSuHNBusCp9qArF81Qtdf8ZqiRJswpXfd2CS9eqLbjooMGqpKGqwE3Y/SdJmn24uoQBA9oNVQarUoaqgibVpSkVDFWSpFlbGnN1mp6pGDRemSVYn1A8pmpp8k9DlSSpLLala9P1BoLJscVq/K5LO66Tf0qSymYj+dqCp+hZ/saB7AarMrqKvPvPZWokSWW1Kd38H6dg4WafFjRYzWSPXOz/8OXAPbigsiSp/DYDO4AjKWC9w1BlsJq6glB1aQpVe62OJKkitpIvr3YIOGk5xsOxaiOIMRYVbCf55J/7rJAkqWL2pWvYTkPCeNhiNUKoaoXQ+/TfFvKWqndZIUlSRe0gH9T+Oj3TWtktaLCaWKhamlV9mTngQ+STgEqSVGUXk08k+hp9MwjJYDWBUFXgHuB2KyRJqond5L1/r1gKg9W0Q9Xd6SVJUp3sJe8B3G8p1sZxaSuYLw5VtxqqJEk1dne61mkNbLFaQaf/Q9eTj6uatzqSpJrKyKcROkE+FYMMVhOxD/gw+ZwfkiTV2Rz50jeH6ZlA1JnZV0+lWibGwt1lF/k8H7uskCSpIQqvfUuPDLatTyFbrHpCVat/WoWN5C1V11ghSVLDbCdfye01ChYeseXKYLViqCqYqwryMVU3WyFJUkPtIm+getlQtTq7ApMNxU8A3oVzVUmSdHu6JmoVtlglBdPM3gj8iOFTkiQgn+PqBPB27ycc0H5hLRptwGD1feTzeDg2T5KkXDtdG/f1fqKLLTVLGl2HATOrX0Q+WP1Sdw9Jki6wEdhKvmDz2QuuqeSTPHYaXqBGt1iFEHoLEFIav8JjR5KkQleka2Vfy8RZa2PLXU9H4AeAO9wtJEla0SXp39cshcFqkKXB6sFSSJK0qr3ks7K/bSnOa1xX4IDB6nvJmzV9AlCSpOEzxN3pGtpnrqFFaVSL1YDB6pvIW6ou8xiRJGkkG4HNwCs4M/s7abMxQvEkoHcDV3tsSJK0Jlena+kFujSzG6jpY6xuIx+wLkmS1m4PcAZ4Y/kHI82bPLQRYTLGWPRGrwDe57EgSdJYvI+C6Yq6NGu27dq3WC2NqwoXJubNwEc4/7ioRhdSMA/p1c0ghvOvECHLIIvnv4Ys/7gkTfNctfx8laUWlAvOWel81Yo+Gb4eG8gnD30FWOgNV01R+xC5MY2r6g6RqjW0LnA/8EqMcf+qZ7UQtqYQuyODXV3Y2YKLOvmDA0utxOYtSWuWpQCVzvXngBMtONSBo8DhrfD28RjfGOJ8tR24HLgjg91dz02jWuoN+nbBNmpEwKp1Mh/wFOB7gJ9w31+7Fry4GOOfjWUHDGHHHNzQhWs6sC2DTV16GxglqfD6FVKIOkU+tue5GOOzYzvXhfBvu81qbBmnbwCPNfGN17bFakCo2oPjqtZ9Y9iBe8e4nY4AP0yvpbD1LuAu8hau+XRWM2hJCuRL0Z1pwwsLMX5jkr+sCweB3ZZ9Td4HvEVeQ4NVLY6+/lDVTht6m/v7upyKMU70QIkxPgc8t/T/N4RwzwLcCsxl0LJpXmqcDnAY+Makzz89HgE+5o3dmmxL19y/omd+q7p3CdayKzDGSCuE3g33AeD97uvrMwffPRfjAzMMzNcAHyWflM5BplJ9xRa8vBjj/5nlH9EK4be8mVuXHwI/aNIbrl2L1YBQdR12AY5DtgDPzHj7vgj8bgpZ16e7ybabRqrBCSYffP4a8OcxxrNl+Ju68DxwrVtnzZa6BJ/v2da06Hl00GBVTgVdgFvJx+u4DuD6HYsxnihRiH4WeDaEME/eVXhPOjF7dylV6LTdgiMd+HInxpMl/PseTTfnnlfWnJe5i/zhghPLAmtt1SpYXQG82v/hu8gHrWv9Stmcm+5s7wPuCyHsIu8q3ItP80ilDVPp+Pwe8NRiOQPV0vnl5RCcfm+d9qRr8beWf7CuJ+jaBKsBTwHeSL5sjcZz1/FyBfaDQ8AfhRC2kLdi3Y3TN0hlOo8cBb4eY3ytQn/308C73Xzrchv5E4JPFQWRRYNVCW9/+kPVjpSQNR6nY4nvKgsC1kng+8D3N4bw7kW4pwMXYSuWNJNA1YanF+F7McajFfz7H0036t6grc9dKVwdWf7BxZq9yXbNN+Au9+Ox+fuq/uFnYnwaeDqEcBXwQeAyA5Y0+fvdDLpdeCzG+M0qv5EY44GQ370brNZnV7o2/01f8q7RSbnywWpAF+AtwM3uw+M7QVKBbsAh9pWXgZdTN+EnyPv9PVFK4z9fLAAPd2L8+xq9r1fJl7rR+twMvA48vvyDdbrTrXywKghVO4E73XfHnUni8Rq9mZPAH6b959MZ7LH5ShpLoDo3B/eei/H+Gr6/bwH/zM08FncCB8gnfa2dSgerTcDp4g22w/12rJ6vcWL8I4B2CP+0ky9d4aSj0uiBahH4TozxkRq/z1P4IMy47EjX6lp2CVY2WA3oArwJuwAn4Rt1f4OLMS61YH0mgx22YEmryyB280D1YN3fa4zxdAihg3MijsvNwH7gyeUfrMO5t7LBqh1Cb7Ldjl2AEzuhNOi9/n4KWL8KbHbrSwPd24nx+016w214ZBHucNOPzZ0pXB2r2Q1HNXX6k+2d+BTgJDSy8SbG+EXypXPOugtI7whteCDG+NuxYaEKYBEecBcYq13UsEGkci1WA9YCfBf5ZJAav6ea+sZTS91/DiFsBj6XQdvlctRQGfAS8NcLDWrBLjgnnCwYgqL1uZX8icvnDFYzsqE/VG0A3uu+OTHfaXoBYoyngH8fQriZfLkcqSkC+UzpXy7TOqEz1iFfP1jj817gFeBcXe5CqnSBK1oJ+07yCR81kZJHu8LOF+OJGONvt+FhHMCqGsvS1AnA/4kx/ldD1QWetgRjdxkDugSreKKtVItV6B+wvhcHEmrKFmL8dgjhoRb8dCefZNSHCNdw4e4WX8xHLubyE+/yrtqs5/9r+FNtBvd3YvyupSj0A3z6fBLuIJ+I+kDV30jlugJ7TrrvBebcHyejBW9bhWIxxmPAH4QQbsjgJ4ENTbuI94Sj0HOYLgILLVjs5LNwL6b/PgssdPN/zwJn0it2z3cDnON8iwnp68Ky3zPHli0Z3W6b06db3TxDzc1DiNA+l09xN9+FjS2Y7+Tfswlot2Cuk3fjzKVXa+ln9wSxxgWyDLIu7I8x/rFH+IrH/omCcb5av7l0TT/Qe82v2txW7YrsyIOWrbnOfXFyF80OPGglVt03nwGeCSH8wwxuqFG4Cj3/vTwsnUth5wT5Y9JH0utwGo9WvTcbws45uPhsPm3LDmBrK59uY74DcxnMdc+HsFgQxKq+rc904asxxlc9qoe6wY84mfAkXJeu7ZVe7qYSwaogVG3BAesTP3HEGJ+yEkMHrL8E/jKE8Dnyi3PpL7jLW5zSYrmLKTydBN4iX4X+QIzx7QZsv8MMubxGWsx7bxcubcHODmxIT4wOav0q8z5AFx6p+iLJM3CGvBVU4/de8idQTxbsqwarMZ3wiqZXuIN8TUBNNFtpDfvrfwkhXJ/BP+iW6I42haiYtmsXONXNn8J51laKkbfxy6ywKHkI4dZufue9J4OlrsqwbBuUxYlOjL/nFl3ThfP5RXiPlZiIneka/93eC1KL/JHMsit9U2ZBIS8H/jE+lTVpizHG/2AZ1nFwhfBJ4MpZXf/THd6hOXhmAR6PDZ5/qCT7w9423L6Y7xMbigbwT9EfxRgPulXWvC13ZPBZH46Y6I39/yaflb2KwbvcsbWgbf4OQ9VUAu0Zq7DOZBPjn4QQtgOfneRNTLpAL5JPsvdwalFR+faHA/QMzA0hzJNPkHgj+SzUk75Q748xftmtse5teaQVgqFqcrJ0ra9ksAol3nGLxlbdCHzcfW7ie3TI4MmFGL9mNcZ2h3sPcPd6LpxpOoIAdAO80oEHr4A3X7Elqk77yaa0jW8hf6R/R9pnxnER/28xxqNWeWzb6je9yZ+4r1HB1T/aJd5pez80h3NWTUUahPOslRjrjcL3QgiPAp8Z4bhbClLH5+DJhfwEc8pJW2u9nyyF5HvTixDClk2w8xzc0YGrgHaWT08xTNgKbXhiIcavW92JnCoNVpN1B/A8FM0NbrAa9eRSFKxuB3a7n01tG7xoFcZe0xPAfwghvA/4UG8rRJpHCOD1DfDoOTjkOBjFGE+SPyH16lLQ6sIlwNXA9eRPSRe1anWA/7UQ4xtWcSLOUsG5ICtmd7r232ewWqeCULUjFVfTuxPT5C6U94UQXgQ+CWwlH0r4/Dy8cirGV6yQhgxaLwHfSt2H17Thyi5c24UNbXjcVqqJeyOD6xzAPnG3ky/QfKQqf3Ao4UmjaHqFHwNuc/+aGp8IlCoqhDBvd/FU6nwH8KMYrKbhEeBbyz+QpQBTxukXshLurL0futxQNf1gZQmkajJUTc1LlmBqbktZ4B3dEifarGQnhKLZVW91nzJYSVLJrldHrMJU9WWBpUlDDVYrCP1dgNcCN7g/Td0pSyBJq3I86vTckDLBBewKXDn9F/0xdgHOIN+2h1wzTZKaLDNYTdttFdkvyqHd31p1I7NbDqTZyapCT19I0gwZrKbrypQNDFariTEWNefZWjUjCwYrSRrmJtRgNX23lTbMlOlvKXgS8FZgj/vPTHaIgF2BkrSqTjmH+NTdHgYMZDdYDdbGJwFn7YQlkKSVtWyxmpVbKZjgvCyBJivhH/Ae4GL3m9no4jw4kjSMjlPTzMrFKSv0Xb+2Gqz64v4GbK2aNWcRlqTheBM6O7emzHCBMnS3lK0r8D3k6wLKHUKSyq6TlXBpuIbYQUGrldfRC82XtUhN4oKikjQ0z5ez9Z6UHUoVbMoUrG4BLnI/kSRV515UM3RRyg6l2ihZSX7xXFFxJEkyWGkFt6QMURpZSfbGW3BsVbN3CEmqHrsCZ28HJWuYKcN1tIWtVZIkg5XW5paUJZoZrAre+c3ALveLcuj6hIskDWveEpTCrpQlmhmsOsVJU+VhsJKkIYOVT1KXxi2lCDnMvivwRmC3+4MkqYLmLEFp7E6Z4gKzeLpgasEqxsJQf7P7QrlkQAhhi5WQpFXZwl8uhZli2oOvphas5kLo/WXXAvvcD8olNWtvthKStKqWJSiVfSlbXKBTx2AVY6RLX5PcTe4DpeXDBJK0eqoyWJXPTUVBZ5obairBKoTQG6ouA65z+5dTGy6xCpK0so5T/5XRdSljvKPLdFutJr5TDBhbZWtVSWXAopO1SlIprqFak5tqvVOE0De2b7vBqrzSGKvtVkKSDFYVDlbba7tTtIrfsP3SJdZy0jtJMlhV+jI2uwacie4UMcbemdMy4N1u89JzbhZJWkEIYa9VKLV3zyr4TvSXtvu7AW8ELnJ7l1vHFkVJWs21lqDULqJgwtBKB6sYIx36pli40W1dCQYrSVrZPlzOpuxunMUFbmLBqmDQ+j6cELQqQghho2WQpIF3nz49XY3w25c7Jj31QjbFH+zYqmpxcWxJGiDasl8VU88eEwlWSzOtL7MFuMHtW51zRssgLEkDdX0isCpuSBmk2sGqYND6DfikWdXuxnzIQJIGXzwNVtUwR0HDTjbZfWPMF+T+KRbA1g/vxiSpJkIId3UduF4l7y64xk2sLzebwA7X2w14FbDb7VrFGzJJUgFXD6mW3SmLXGBSyXgaF0/HVlUzVYUQws1WQpL6+ERg9fRlkW5Fg9Vm4Hq3Z/WkZu47rYQk9d94WoXKuT5lkmnsH+PTLn4jbbend2WSVAchhE1dy1BFbabU0DO2YBVjZLE4WKnC5xBLIEnnteDjVqGyrp9YCJrEz9weQu8P2wO4SGX1786usgqSlOsUDIJWZexN2eQdk2h9HFuwOt7/B77LbVgLP2oJJAlCCPNWofImnk3GEqxiLHxo0W7AethpCSQJgMssQeUVZpNxzmk1lmAV+rsBrwO2uf1qIbogsyQB8FFLUHnbUka5wDgXZh5LsGrR1w14nduuVn7CEkhqshDCfAZbrUQtTDSjjKcr8ML/O2+wqh0neZXUdLu7k5tTUtMPVn3j5cbVHTiJJw2vxQWXayWDuD2ES6yEpKZq2Q1YJ3Mpq1xgXN2BYwlWdgPWWxficZ8OlNRQIYRtHbjIStTKxLLKuFusthSlQNXCFZZAUkNdht2AdXNtyizlC1ZZ/x+qmsnyzfwlKyGpiWKMz7Rgv5WoZbgqX7DqifDXuJ1qJ3ThKzHGNy2FpKZajPHLwCkrUSsTySxrDlYFk4JuBa52O9XO92KMr1gGSU0XY/xiZpdgnVxNwRQa621xWvP3hxCmkvw0GxmEFrwcY7zXakhSrhPj71iFWunLLutNzmsOVq3i5KeaCHByMcY/tRKS1Mcxp/Ux9uyypmAVY+yd72ETtljV6qZsMcYvWgZJKrwGvj0HP8ggWI3KuyZlmNkGq7n+bkBbq7wbk6TGOBfjD7tw0HBVC2PNMGsKVosT/qM0M4F8sPoRSyFJK4sx/mHXJwUNVusNVgVPA7aAq9wutfBqjPE+yyBJQ18Tf9cqVN5V9AwdX8+TgSN/b8HTgFcBG9wu1ZbBQozxK1ZCkkb2DewSrLIN9DQQddcRrsaxpI2tVTXIVV3HVUnSmsQYHwOetxKV1pdl1jrtQjbizlP04SvdHpUWgG/FGI9ZCklac7j6c+CclaiswizTmnSwKrAHV/yuukMxxocsgySt2x8ynp4gTd9FKdNcGJgnHazmQuj9hivcFpWWAX9sGSRp/dIT1T+wEpXVl2nW0h04UrBa7P8ldgNW21/GGM9aBkkaW7j6PrBgJSqpMNPsnFSwKhhftRHY53aorBMxxqctgySN3X/FpwSraF/KNhc4PKlgVTDNgt2A1b6r+j2rIEkTOb+ebsMjVqKS1p1tsln+cs3GHDgJqCRN0EKM32RtY5/VhGA1YJoFuwGrqXMuxu9ZBkmauD+0BJWzb01BaR1fv2QXsMP6V0taLPT3rYQkTV6M8U3gtJWolB0p47xj1CcDhwpWBeOrLrf21dOFozHG41ZCkqYWrn7Xia0qZ10ZZ6jt3RrzL9XMDvD/ahUkaboCvJr5lKDBatnFmI7BqtLSAf2KlZCk6VuM8X93KbqUqpHB6rL+bsDdwBbrXindGOOfWAZJmo02PImtVlWxJWWd0QLTsF93sP9De615pYQMHrcMkjQ7CzH+Lc7IXiVrzjprGVN3mfWulMWFGL9hGSRp5u7FVquq6Ms6wz4duGKwijEWfYEtVtURcDJQSSqFGON92GpVFZNpsQq7+7oYdwFbrXeVjuP4Q8sgSeWQVr6w1ar8ttIzn9VYghVvvdX7EbsBq3cAS5JK4lyM9zL6nJOajTVlnlXHWPVs/T3WuTIyl66RpFL6jiWohD0jhyZGH7xusKqO8md/pwAAIABJREFU+y2BJJVPjPEh1r6knGYYrIZpasxW2PC9H9oEXGydKyEDHrQMklRaD1uC0rs4ZZ8LtNcarArWB7zUGlfGwRjjScsgSeW0M7/5tdWq/Pqyz+Jag1XBJw1WFZCWr/krKyFJ5XUoxqMtOGwlqheshrgOF2vR15dosKqALizGGI9YCUkqtw78hYszNyRYFYyvgoJ1c1RKtlZJUgXEGN/uQrQSpVaYfeZGDVYpSS93ES68XAUBOGAZJKkynG+w3LakDHSB7qjBqmDg+iXWthKOxRhPWwZJqgynxim/vgzUGTVYzQ3xQ1VKX7EEklQdMcZzq1ynVcJgxajBqqCJy/FVlTg+4zHLIEmV83VLUGq7hwpPK32uIDo7MWj5vW4JJKmSd8XPOKFVqY2UgbKCDdz7oS3kqzyrpDIIMcb/ZSUkqZq6sGAVSmsrPQ/wjTR4vWDguq1V5Wf/vCRV2w+c06rULl41QK3ycYNVte50HFslSRUWY3ywO9wavypJsOoOG6xa/R/cZT1LLQB/Yxkkqdoyex/KbNcI27Ff12BVJZ0Yo5OCSlL1g9WzdgfWLFjFGIvi8k7rWWpnLIEkVd9CjF+3L7C0hs5Cq42x2sHKS+JotgLwkmWQpHrIYNEqlNJcykQXaK0hWNlaVe4DMAB/byUkqR664LJk5dWXieJqwapgqoUd1rHUB+A51waUpFp5BsdZldVQmeiCYNVa4w/RzBy3BJJUHzHG7zqAvUbBqmOwqpIAvGoZJKleunDOKlQjWHVXC1a2WFUuWD1lGSSpdk5ZgmoEK4ANg4JVwRqB88Bm61jem5oY40HLIEm186bdgaW0OWWjC5wbFKygryvwImtYaictgSTVz7wD2MusLxtlq/z/5bZbv1J72xJIUv2cifE5Jwotrb5s1B0UrAqmWjBYlVcA9lsGSapvvrIE1QhWtlgZrCRJ5XfCElQjWA1ssWr1p6xt1q+8XHhZkmrtkCUopVWz0TtZqtOfugxW5eUcJ5JUb2/hAPZqB6u1fLNmo+WM65JUd/sNVhUOVgVzWG0G2tavnDr5nYwkqaYc7lFabQrm+Gz1BqsCW6xdOaVJ4w5bCUmqvUVLUEpbeq7LxCGC1VbrVk5dYB6OWQlJqj2nXCinrb3X5d6gVTSHlS1W5RXacNQySFLtucJGOa2YkewKrKCdBitJqj0fVDJYaUpeifG0VZCkeus4nrYywapbFKx6EtZm61ZazmElSc1wAqdcKKMVM1JWlLYMVqV21hJIUiOcsgQVDlY9Nlm30vIpEUlqxtX7NLZYldEmg5V3MJKkitmQBytVLVgVzLo+z4WTiMpgJUmasiOe78uqlbJScbB653/O22jNSu2EJZCk+osxnsOuwLLa2BumWsuDVddgVSVOGCdJzdG1BOUPVgCd5cFqtS9WeWzwIJOkxsguXIZOJQ1WhfNYLTNvvUp7gAXvXiSpObqe88tqvuAabbCqonPnWxslSY3IVqpCsOouD1Y96WqD9Sr10eVBJkkNYVdgaQ3MSlkIYegvlncvkqTpCZ7zKxOsVuoKNFgZrCRJnvM1QrC6IGB1DVaSJJWOg2orGqx6zFmvUsssgSQ1Q8sJQsuqLyt1V7hIt62XJEmz1zFYldXArGSLVfV4kEmS53zN1sCslLVGSGHyIJMkTU/mOb+sBrdYdQxWVTrAlv0jSaq7rsGqMsFqpekWWtar1Nw+ktS4e2qV/VrcNVhV8s4lepBJksFK5QtW72ywzI1YKRsMvpJksFJpt0vWHSGFSZKkqXKMVTm1RklcbsQSOwdbrYIkSeUMvNmQH1N5bLQEktQY0RKUUjbKJ2yxMlhJkmYshLDFKpR38wwMVpnBqmrmLYEkeSOtkgarrsUxWEmSymiDJaiOlSYIlQeaJGnGNsJGL9LVMk9xV6DKv90kSTV3BjZ2HbxeGV3y/sGirkA3YrnNWQJJaoRNlqC0CrNSoLgr0GBVYpmLZEtSU2z0mlytYHV6QLByPHuJ2SwsSc3QduhHyS/HxWyxqqAQwnarIEn1FmGbVSjz5hkQrAqSVcd6ldtml7WRpNrrwGarUObNMyBYFXzMrsCSp+RTBitJagIHr5fX4K7A7ggpTKVhsJKk+nOMVXkNbrFqGayqJnoXI0mN4PQ6VQxWBZ9ZtF6ld5ElkCRpZvqy0jtL2rQMVlXkU4GSVGMhhL1WoVrBamloVVGL1YL1KrcWbLEKklRru3D6ozIbmJWyYVKYyqXjgEZJqrV2HqxUXoO7AkdJYSoHl7WRpNpftbdhi1WZ9WWld7oC5/rT1TnrVW5diCGE3VZCkmrLsbTlNjArFc28brAqvwjssQySVFvOul7VYLXBYFU5GdAGW6wkqb42WoKKBqtjMRqsKqYLcdG5rCSpzlqWoKLBKl2olztrvSrBVc8lqYZCCFdklqHszhYGqqV/M4NVFdn/Lkl11G5f3fWJwMoFq+7yYNXTYnXGelXCBksgSfXTWly8DINV2fVlpZXmsTJYVUQI4XKrIEn10nF1jcoFq4yeFiuDVSVF4CrLIEn1kvlEYOWC1fKevyyE0PvFZ/PArAoEq32WQZLqpetQj7LrUDDGqn0+GBc6bd0qwScDJalGQgjeMJdfYUZaXB6sMoNVVdlcLEn1cqMlqGawYnmwCv0fP2XdKmHOEkhSrVyBTwSW3anCMLX8vzv0tVoZrKohhhBuswySVBvzlqB6waowZPXMZXXSulUjWLXgJssgSbVhT0T5nVw1WG0a8ZtUHh3YbhUkqfpCCJcw+KEylThYdXuD1an+hZgNVtXhY7mSVANtuMtUVc1gRW+wKnDCulVGK4RguJKkiovgGoHVcGKlMJWtJY2pPNIG/JCVkKRq65yfY1LltnqLVQih6KnARWtXfunu5norIUl1uVdWiS1S8FRgt2gjdvu/+bj1q8yRaFegJFVYCOEDVqESjq+WhrNRvlnl1PUuR5IqrQW3WoVqBquuwaqe5kL4sFWQpGrquERZZYMVIwSrY9avOhbBGdglqbqCJaiEVbPRO8FqW3/KMlhVS8sSSFIFE5U9DvUMVsdi7O0nNFh5tyNJmrzbLUF1g9Uog9ePWr/K3fX8rFWQpEqdtzdgj0OVHO0NUQMHr4fQ1+BxllVWcFbpXG0JJKlSdlmCyjiVstE7CqaqurDFqiAyH7GOlbv7mbcKklQZP2EJKqM4E23aNDhYDf1DVGY3WgJJqozdlqC6wSoDOH16cLDqGKzqwKdLJKkCLgphF8W9SapIsFq1K3CTwaoO2iGErZZBksrtGPyIVah2sGK1YHUqxt7PH7aOlROByyyDJJXeNZagUg6vGKJW+FhvOluwlpXzUUsgSeUVQtiXboRVDQv0tFgVTbXQF6wKplwoTGgqtwzmQ953L0kqoRZ8wGBVKUNnoWyIrzlkPaulm4fom6yEJJVTB66wCpVyqOBaO1ywahus6uK9lkCSyieEcDO2VlU+WDFssFrs/5q3rWclZSGEayyDJJXO3Qaryhk6C/UFq9j/ZKDBqppiC+6yDJJUHiGE7cAOK1H9YJUNG6wKBrCfBE5Y0+rpwD6rIEml8kGcFLRqTqQsdIGhx1hB4ZqBtlpVUAYxhPARKyFJpXG9Jaicwgw0P0qwKlja5k3rWj1diBm8x0pI0uyFEN5HYduFSq4wA50dJVgVeMu6VtaGEIJTL0jS7N2Og9ar6K1RwpPBqubSnFbvtxKSNDshhJ2A67jWJFgxarAqeDLwKAUDt1QZO1yYWZJm6mdx0HoVnUwZ6ALdUYPVgKVtHGdVXd10UEuSZuMiS1BJI2efbISvfcP6VtrFlkCSpi+E8M9wbFVVvTFqcDJYNe/gliRNUeaNba2C1WraBisPbknSxG5of8kq1CtYrTZQbpQWq9M4UWildT3IJWnaN7SXWIXKejtln1G3+WAFs5gdtM6V50EuSVMQQvi0jwFW2poyz4rBqmOwquvB/stWQZImbo8lqFewGqabLxvxl7xunWthZwhho2WQpIndwH7GKlTemjLPisGqYKLQQ+SrPKv6HGslSZMJVTsy2GklKu1EyjwXbtv1BqsQQtEXHLDetbB1awg2U0vS+P1i13mrqu5AUWDqrDdYDfgCuwNr4iR82ipI0viEEK4B5qxE5a0566warBaHSHGq9EngLqsgSWPj8mH10Jd1hn3CM1vDL3sTF2Sukx9xgWZJGsuN6k9hF2AdnGQd6yNna/y+/da9NlygWZLWG6q2bt2TwU1Wohb2rycsGawEcMnGEG60DJK0RidP/mx3+N4iVSxYjWKoYFUw7YLBql7iWfiYZZCk0YUQfhLYZCXqG6xGScxrbbE6BByx9vU6N7RD+CeWQZJGClVbgPfg2Kq6OELP/FUZhUv8rS9YhVA4JdZr1r9eOnB5CMExApI0vH9uqKqVvmzTZbj5q0YKVgO8av1rpwt81DJI0upCCJ8AXB6sXtadbYYOVgXjrAxWtT1XhF+1DJK04olyE3AdtlbVPliN2gKVjbAT9X7oDHYH1tWWEIKD2SVpsF81VNXOaynbXBCSRn3UM1vnH/GK26GWInCTE4dKUr8Qwq8x3Hq8qpa+TLOW+TNGClYFHcl2B9bb5yyBJJ03F8KHcVxVXa27G3Dk7zkdY+83HASOui3qe2PWCuHzlkGSIISwexHutBK1dDRlmnXLRtypiprF7A6ssS60g/NbSTJUbQR+0UrU1isDroGTDVYDvOz2qL29IYS7LYOkBvsVS1BrL48rII38fbG/O/Bl4JzbpNYi8KEQwjWWQlLTpCloWlaits4xxkaibA07WO+HOthq1QRd4GdDCNsshaQGhapPAZutRK29TMHk6mtdUXtNLV2h/xtfcrs0QgQ+l8YaSFLdQ9VPA/usRO2NNcOsKVh1+pOcwapZfsUSSKp5qPrJDG7ASUAbGazWMwA9G9MfdRp40W3TGK0Qwr+2DJJqGqruyeDW7tp7g1QdL6YMc4H1bPhsjH+crVbNMme4klTDUHUXcLehqjEKs8sVJQlWL7p9GhmunEBUUl1C1e0ZfBi7/5rkxaJgtJ5lZcYZrE5gq1UTtUMIv2EZJFU8VN0N/GjXUNUkL6XscoH1NlWuK1i1hkh+aoRWy3Alqbqh6gPAB61E47w41lA0jp/R6f8BL7idmqmbh6vftBKSKhaqPgF8wEo00kQyy7rDWU+T2UnDVaPDVRZC+EIIYZPVkFR27RB+AbgOu/+aGqpO9gaicTyxsO5gVdAd+Lzbq9k3gBn8egjhekshqbQnqhD+RYTLDVWNNbGssu5g1aawO3DBbdZc6THlnwkhvN9qSCpZoNoYQvhXwHYHqjfWAgW9a+OaX2Pdweps8YdstVI3g3tCCJ+0FJJKEqouBX4N2GA1Gu35ovjSLkuwgnztwII/Wk1PVvkNwJXtEP4v1xeUNONQdVcGv2QlVJRRMmCxTMGqU/xHH3fbKe0fm4BfCyFstRqSpq0dwmcz+LCzqStlk4k2/mQT/NnPuv3Us7P9iuOuJE1LCGFDCOELHbjI8VQalE3G9TTgNILVc24/LZdObB9IA0claZKh6i7gX1E4WkUN9lzBtWncjQgTcxA44DZUgQ1pvqsrLYWkCYSqXwc+ZCXU40DKJhMNQdmEf5jdgRp47gP+cTsEB5NKGlegujmE8AVg3mqIITLJJAbdjTVYbSx+E4tuSw0QI+xuhfAb8yHcZDkkrSNUfRb4GHb9qdgiA8ZXTaLVYNI+BnjR1GoJP+vCwRjjH1gNSSMEqg8APhSj1TwJfH0q++QUfsdVwM+5TTWsOfj+uRjvtRKSVghUlwGfADbjE39a3Z8CL1cyWMUYCaHvx/4isNvtqhH2yxPAX8cYX7McknpC1cczuNl5qTSkN4Gp9Ya0J7DDF334aYOVRsnnwJYMfiGE8DrwZzHGU5ZFanyguh34caBrqNIIni764DyFy/KNpWVg7ObIZ2NfttdvAT6TPiWNKgMeijF+y1JIjQxU12XwCSf51BosAL8PnOy9qEwqmU/z6YmfBG5xG2s9++s8/OWZGJ+xFFIjAtUu4J/goslau8eBvy26W69DsNoH/LzbWOuVQejC38UYH7QaUg0D1bZtuzlx4tNMdhJrNcNXgKmO1Z1YsBowiP3nU8CSxrKbAY/EGL9tKaQaBKoQ9gCfAlpWQ2PwWgpWU9We4AFS9OGnDFYa843B7a0Qbg3w4mKMf2FJpEoGqjuAeyZ5TVIjPTWrC9PEzJGPGlsmA34ZuKgBF/yl1wJwpgWngZOdfFz/ZmBb+jdLbd3RgZlrl7oHuy14ezHG/2lFpEoEqo8D16dA5flP43QU+O/M4OnRiY+xKhggVstZctPM4QspIb8EvB1jPDrkyWU3sAO4pgVXdmBrKpsnmrXv14fJx2G9ZDmkUoWpLS346Q7sSZcIz3OahB8CP+j9YIu8daPSwarAdvJWq7r0oYcWHOnAd2KML4zrh24M4d1n4V3ANeluzjlb1pbrzwBPxxi/aTmkmQaq95M/Gb7d85kmrEPeWnVsVnf2EzVgEPtPAO+pw7kCuD/G+N0Jn5CuAu4CLvcOb03pKnTzbXUAeCDG+JxVkaYSpvYBd6YbRDx3aUoeA74xy2AwC5eRz01SdftjjF+e8onqg8BtGWxy5uE17/Nd4Ang8RjjQUsijfUcdTFwXboZ3IDnKU3fHwOv935wJ/kYkVoEq23A8f4P/0w6+Koq2wJ/eCLG12d08roa+Clgo3eBa9yA+bi4ReB7wAsxxiNWRVrT+WhbOp9/kHylEMOUZuV5YKZPiIcZ/u5ryVcmr/B1md+LMR6b6QYMYS/wjzNo+1Th+kqZ5euP/RB4IsZ4wpJIK557tgI3A+/LYM4WdJXEnwMvzPTYmHYS6TnyqjxhaAC+G2O8vyQnufeQL04aPK7WvZ+GtJ8+A3wjxnjWqkgQQtgMfAy4Op3PvZlTmRROCDrJ5WtmHqwK3Ah8vKpbsAUnF2P8/0p24vtUBvs84Y3dSeB7McYnLYUaFqbuJh+A7np9KruvUTApaMGcmvUJVgPe3C8Cu6t6zmFKa9alAaE/TT6m6iDw9Rjj6QFfuwn4VWy9mpQu8Hba9vsth2oWpG5swfs7+fBY1+pTVbwJ/EFZgsFUFTTJ3UrehVVVMcb47yZ8orsK+CT9rVCHYoz/Y9D3tUP4VCfvarX1anLHTxdYbMHpDjwcY3zIsqhiQepjwNXp3redusI9Z6hqvgk8ukreqGewKtAib7XaVeENuhhj/A+T+uHtEH6tk7dU9YbUEOD4Yoy/N+h750O45Vw+JsKBpdM5nmILznXyJYz2k0/p8LqlUQkC1AbyCTrfRT5J53wKUo6VUtUdIm+t6hiszrsD+EjFN+y5GON/mtAJ8VPkk4MO2oZ/utLSLSGEncA/x67BqR9f6e6/Qz5G63AKWy/EGN+2PJpgiNpCPv3BvnTTujWD+RSgDFGqm78DHuoNVRn5fDqNCFYFY63myFutdlR8406s5SqE8G+KPp4u3C/EGP9siJ/xOfJxE5rhNS+9InAqha03yMfNHYwxHrdEGuG8sBXY24Y9i3mA2gVs4fwKDYYo1d0R8taqhd5gNatumjK1YNwJfLgmG/pL426RCCFcAnya/lXgA/A/hv19IYRfzOBSm/7LY9n0DgGglQJXB14ln1v3CPl4Oqd9aGh42gQ7TsNF6cZoTwsujrAl7TfR7jw12HeBB8p291wW88A/JT951OBayV/FGJ+awEn2x4HrWtDqwOI8/P2ZEX9PCOHnMrjaE3E1rqvLglcETgBvka97eJg8hJ2a9US1WtcxvZ18DOXmdB68Crg4y8+F890Lg5PHrHTeUeAPgbO9F+BZDiou25ibOrVaBeDZGONXy/jHzYXw8cV8HjFVfz9bOo47wBcHTcOh0garT5JPuBm92ZFG0tdatTQ/yCyD1UznKGn1f+gx8m6POojAu1ohfL6Mf9xCjF8DHve4rMV+1iUf3/fvDFUV3IAx/glwn6FKGsmRlBku0GX2j8DPNFh1+v+Ac/TMQ1F1XWiHEH4rhHBbCU/ofws8iU8L1uDaHH/HMlR6A36XfJ1KScN5NGWG8oSasvwN3f4/4jHyWa3r1qrwY60QfiPNij4VIYSLQwi3hBA2rnBC/7rhqrqyfBv+OytRi3D1gzY8YSWkVb1NQWvVUqaYtVJcTGs4G/tq3owxTnTq/RDC57J8EsClQa8d8vmuXiv6+nYIn+zAlR6v1QpVXfhdu//qpR3CL3dgp5WQBuqbZb1s5+aZK0iYj5LP61NXu0MInw8hTGROqRDClcD27oWDYVsZfCqE8MGi71nMx3k4aWV1QlXYBf/FUFU/izH+d6a7ZqxUJQcp+ZChMi+w+Ujdb0yBfxlCeP8EfvZ1AwJsBO5Okwr2iTF+CTjjcVt6IYP73nQy0dqKMf5HXIZKqmQ2KHOwegp4pe7nzwzuSY9bj9Nqa9N9ZoXP/TeP29J7ayHGv7cM9bYZvoJjH6XlXknZwGC1jj+m7q1WdKGbwVUhhM+O8W73qVXudtsrfO/ZbfClkofuxsqgk1oWVXMnYzzQhqcNV9LKmaBlsFoxZPT+QS8AzzQgXEXgohDCr6/0BN+InlrphBxCmB/0uWP58jg++l2+gzXrwletRHMsxPhX2D0vkbLAC0Wf6BisRvZog3acefJxV+uekiFNo/DWCuEqW+X7v0e+XIrKE8BfjjG+aCUa50+x1UoqzALtct4El+7i0Ws/DegS7NlPfmUcPyjG+KUWvJBduMFDC04P8zRZjPGL9geWRogx/m/L0DwxxoOpS1BqqkdSFuizWMaTdUWKugP4FPkipU3RHeds2iGEHwEuBZ6OMT429Pdt2nQNZ878I4/rmd79hG6+qLcX1yYn6xB+C5e9UfOcAr5Mz3J3s15oeZVzdiX+sCPAw027noYQfnOMd73fiTF+eZRQBRBPn34RuwRnbdFQJeDrmV2Cap6HqxSqSh2susXFfbOB4eo3Zv1HxBi/6J3yzA7Q0M3H2KjhYoxPUL5xutIkvcmARpWtBquxWAAeauCO1Qoh/MtZ/xHtfOCgd8tTFuDMoGWI1Dxd+AtbrdQgD1GwCkEXOGGwGpungOcbuHNtbYfwczNNtTF+Cx/7nrpOPrZAAiDG+GK3nON1pXF7noLJQKsQWrIK/oEP0cClHjpwdQjhzhn/GX+Ad8vTtBjzOcWk5f6PJVDNdSnooSr72KrKBKuCWSz308wuwQh8JISwa5K/JISwfYW75WPAqx7zU/MVS6CC49BjUHX3EAXTK1SlRaX0weo0A1utDjc0xf/SJH7wXAg/1Qrh/yafoPS3QggfHXBS/wouDjuVAzPGeNBKaIDvWgLV1GEq3nhSiTFWnRh7/9CTwINNveaGED4zzh8YQviRRbixmz9x1CVvHbs5hPCFoqVv5uGvM9cSnHSCfsQqaJAY4wNWQTX1YLrGG6wmKYRQ1ETyOM0cyA6wcy6Ej43x572b4ukUAvDrvR88E+OzXXjS43+S1834LcugVRyzBKqZ59O1vdKyiv+xD1LwKGYTLryLcMtK46FG1F4l2P5swZX/r3FOnUk5Zwm0qssv/2OLoBpZYEBPVMtgNTkFrVYHaOZAdoBua0zjrVqrP759zYCFob+ETwmOWwD+2jJo1bur1147heMdVR8PpWt6X0ip2h185cbJFPzBDwCvN3Ev7MCGdgi/MIYf9cYqkw5GoK91LMZ4BPCuecybNcb4kmXQkJw8VnXwerqW99lYwTdTuWDViX1Dgc7R3IHsRLg8hLCuxakXY/wzVm95uqXw98d4AHjO88LYnLYEGvr4j/FPsNVY1fcgBUMgMqq5UG3lglUIheeQ58iXXGmcbt6a9Nkx/JzHVzpBt1dYKzDG+FWaOdZt7Ls38PeWQSOexJ2JXVX26KCb8251j8na/OEPAIcaumPOhRA+ss4736+38ubYwnC1uMpTgDHG/4jjPdadb2OMT1kGjXhTdNgqqKIOMaALsF3tm53Knkx6HRu0gRrijvX+gMUY/wh4DMiWjbkKwNEY46rj2N4D/y8rtGxpVXYDai2+h92BqqYHKJg2JKPazbB1PBg/Ctzc0J30eIzxv4zjB82F8OOLsAV4O8b4/aF3qHwKiH/h+WJNx+LTMca/shQaeecJ4QuGK1XME8Df1PGN1XH27AeAIw3dUbeFEHaM4wctxPjNGOOfjxKq4J31BP/EadnXFKx+YBm0RmcsgSrkCAN6mFo1eHN1vP4dptldgr806z8gxvhKF/7Ic8dIOmn6Cmkt3sxssVJ1PMCAsYF1mHW6FsGqIOE+Tt7M2ETtEMK+EoSrg5vhy54/ht6HT1gFrcNjPjmiiniCGixbU/tg1Sl+I/fT3KcEf74Mf8TJGPfvht/zPDKUty2B1nEj87wtVqqAQ+naXL8gUsf30+1/M0eKNmBThBBuLMPf8UaMJ2KMv41TMay4uTrwomXQunYix1mp/O6nAWOgaxUUC67cTwGPNHQH/qmS3VH/Tgve9Lwy6JrIM5ZB69EpeGxdKpFH0jW5z+6avdF2Azbm/cClwJ4m7cEZEEJ4b4xxosv9tEP4hQiXdc93QywCz8YYv977tYsx/kEI4X3Ah3C+q57SxHOWQev0Zga7ux5bKp+DDOhBaqVP1u36W3cn0gZtVFdUOrl+eJK/I4TwoQ5c3r1wbEcbuDmE8PlLQ9ja+z0xxvvIF252PMj5E8tJq6D12gD77W9XOS9H3E/BAzoZ9XgKsInBCuB54L4G7tBZaiGa1M5zJ8V3xxFovwmfK5pXK8Z4IMb4/wAvZs3ZBwfqNHfeNY3ROXjJGxaV0H3pGlyYuGp54aU5b+x+4IWG7dARmFiw6q7elRxYYV6tGOOfzcFfZPnx1dQLQqC5T69qnAd7jKczuwFVLi8woAuwzuOQahusuldc0fvmFlNyPt6kvTqD+RDCeyb0s4d5CmkuhPAzgz55JsZnOzH+Trt5g7cQcRHyAAAUpUlEQVRDlreCPwv80POvxnSz43qTKovj6Zq7WBQ8Fmv8xuvbDfPqq0XNjAdpWJdgN28NuntCP/uxYW6kgatW+6KFGP8yxvjbLXirxgdbIH+dAr7difHfxxi/GmM86zlY49DK9y2pDO6jYFx6Rv0HPLcbuLEfA3YBtzfoPW8PIeyYwJIp9zN4nNVyG4b9gYsx/k+AEMIvARdTjy7CACx04aUY41c932pSOnkrwS4roRl7mAE33k14wKL2wSrGSAihKEnvAq5oyE7ebcHPAP9jzLU9HUL4E+DnVvq6NPXD5hjjqRF+9lLA+pkMru1WM2B1ycdP/aXrAGpKXBpJs/YqBT1DTWipakywCiGwAeiZJOhU2vA7gS0NuZPdOaHg+nII4RvAT6z060cJVT0//y8ANodwxWn4h8DGMtc5nTyeX/q7pWmag2ML+U2Ig9g1CyfTtbXRXdKNehKrIDHfBvxYg7b1IzHGb04owG4Efm3A730wxvh3Y/xdlwEfzfKuwjjDCREDQAsOduDrMUaf7tOsbyTflcEnui4hpdn4Fs1d7cRgtcyP0pzxVgsxxv844RP7lS24B9jRgaPkgWNiCwzvDmHbMdh3Lt+GS7PrxzHfsYdlx8ox8nX9Hkj19CkslSlY7QU+jcFK0/cw8O2iT8wBCw0qRKMGr3eLw9W9wEXA1Q0IlhtCCFtjjBMbhxFjfAV4ZVrv6c0YjwNPphchhE3k3bubgL3A7hbs6sDGDDZ08xUUCv/0LB9gfoa8GfvtDfDGuXyM1BnglCFKFeBTgZqFl9K1tPiOvmHFaNxTgQW3cafJ+4QvAnbU/L3HdDf7/1Xk7ns7EGKMR0cIdqc5P5fPK0jN4pqTmrYj6RrqjWdTgxXkTRY96xMdSGn7o9R/iZVSD9YPIewEPkE+2D6kjy3dib8QY/ybKhU7hLAZmBslHEprlZ7UdVkbTfF+nXvTNVRL5/2mvvEB460+ALy/AcHyyGKMv1/CELIb+GcMGB+SQUitbl+LMT5V4jB1B/mYr94W0NNz8OC5GO/11KOJHd8h/FsHr2tKfgj8wDL054vGxuwBO8mTdX/vHdhxZT4WqWz+EStcEJY9/fcPQgh3lTBQbQ0hfJ78gYjt6b0sf8134J52CJ/11KMJntsMVZqGJ3E5LoNVrxj7HhyL5M2ar9b9vb8Kv1zCnXHrCLn4Q2MKQ7tCCJeGEC4J6w+b/5K8ez2uFA47cNGGEN7r6UeTOrVZAk3+EsK9vfta1vRQkbSb/OZDCLSXNSckR9MOs5V6D2bfuC2ES4/H+EaJ7rRPApuHDGGhHcLPL8b4lTVs9y3Az5PPvh8v/FQ4B/xFjPHlEX/mr4zy9QvwXuBBT0GaULBynJUm5Ui6Rh4ddNfbdI0Pl4ucn4ZhmdfSjlPnBbg5Af+0ZH/S94a9IKSWn+1rCFXvy+BXU2jucn7Oq5j+fxv4uXYInxvxR28e5YtbeYiUJnSPIk3sknlvukb2udj6GKxWORM9RQP6j0MIP16a2+wYnwCeHfZPB/aP+F53APcMM1N7B7aFED4+oYMubIa/9ajTpA4lS6AJ+WG6NvZpA29aH4NVz0W96MP3k88mW2e3hRD2lGg7fBX4brbKvtmCszHGr43440dtobtx2C9s5ROJDnvQPX4sxrc86iRVyMPpmlho0foYrHotTf2SFSf0Z2v81iPwCyULuQ904T+TLxuz1FObAVmWt1R9bzHG/7SGHz0/4sEx9DiVxRi/RL7cTVjlePvaQsXm4lLlTuqOr9K4PcuAHhxDREGesARD2UW+WPO+Gr/H12OMf1zS0DsPbCBfm+/MOn7OzwFXDfv1LTixGOPvjfg79pGvlXgp5+eifRu4N8b4vIeSJq0Vwue7DX8wSWP1Gvniyod6A5WD+QxW67UvhatdNd4X7o0xfq/WO3wI/2bYr40x/ra7vSq4j38eg5XG41AKVa8ZqoZnK95oqf2H1HeR05jB3SGEvXXeiDHG327lLUhZwY1FSB9/01AlqeFOpWte3xOAhqpVbm4swchuBT5C3s1Ty+wBfDEtZlznu/qtwPuA3enu/hz5Qy0PxhiPu5urwvu2LVZarw7wd8CjlsJgNd6EESOtEIrS+d3AB+v6vjPodGL89+4BksFKjfR98vmqeq8NgC1WQ1xDtcIJik6MRUW6l/yJtVrqQqsVwm+4B0hS4zxgqDJYTTxcrbBg8+N1DlchhF93D5CkxnicgmkVDFUGq8nYsKH3IwvAD4Bnavyu51O3gqTqnNQd4qG1eCZd0xYG3GzLYDVm584VjVY/mdL9izV+5+0Qwr92B5Ck2noxXctOFoUEQ5XBamI6nJ8CfJnDDHgktUbmQgi/mSbqlFRiXgQ1oqWphA67PxmsZnbS6vYX7g3yJtSDNd9Xfi0tZCxJqr6D6dr1RtEnvZM2WM36rnB/2kHrvLhuyOCzG0L4oHuAJFXaW+matX/QF5y1RgarEhTvZfIm1UM1DpSxAx8IIfy8e4AkVdKhdK162VBgsCpbyCjyfNphj9b4fXczuCKE8K9CCLvdEySpMo6ma9TzRYHAMVUGq7J6lryJtbZLo3TzpW82AL8UQrjLTS5JpXc8XZuetRQGq1KLxbOzP133cLX09jP4cAjh10MIO90bpJmf1J3HSiuFqqcHBQFbqwxWpbHC0jdPkje5nqjz+0+tV/PAZ0IIP+4eIUmlciJdi54sCgEGKoNV1cLVE00IV0kEbm2F8G83h3Cle4U0kxsdqShUPWEppsMV0MccrmKMhNDXEr+0puD7ga0NOLF3T8MnQwhd4H/FGA+6d0jSzEJV4bq2tlYZrOoQrmIKV9saUo4M+HQIoQN8O8b4mHuIJE3FcQa0VC0FKkPVhHKAJZi6m4APNChcLR3IAVjswiMxxu+4G0gTu7n7TRzmYajKB6o/OeiO11A1ObZYTd+TaZ/+AHBRU950GuDeAu4MIdxBvi7VX8cY33KXkKSxOYpP/8325sYSzMz15N2Cuxpcgww41YL9HfhOjPGYu4W0Pq0QvtD13N5USzOqPzvohGuomjxbrKZgC3C6f4d+Nn3o/cAlDS1NF9jYgeuA60MIJ9vw7CI8F2N8rfZ3NSHsBU7HGI94lEhap7cYMKP68hOupnButwQzdxV5t+AeS9F3Y/U6eXP2/hjj2xUOUBuA3SlAXwbs5fwYu2/HGB90k2uM+9sXPLc3zkHy7r+Ba/8ZqqbHFqsZJYZlXgYWU7jaZ4UuOAdclsHeLoT0lOUR4AXg5e1w4miMpVrsOoSwJQWmLSkw7wV2AK10cotprJnnOUnj8loKVftXOpnKYFVbnRhphdC7s+8HvkveLXiNVbrgpBA5H0a2A3dk8N4T58NWFzjUhtcW4UXyXteFpVeM8dwYAtM8+cD7uXTMtIG9bbg0wsWd/O/akL58+d/7ztvw5CZpAl4k7/57Y8gbeRms6meFea7eSOFqAbjBSg0dtgB2LeYPAdy2VOZ0UgnL65xBp5vX91yq8wWbpgXtTn5MzKUglS0LS8tPVBHyZsYx3BjaZSNpLZ5JoerwoEBlqDJYNSpcDbibOAx8J130b7FSaxaXBbDlySeQtyxtKPqmTmGGG096MlhpWjIIXlBr73Hy7r+TA24+ZbBqpm7P3UVyEvg74Cxwp1WqtzmDlSZ0XlFtPUDeUrXQE6jd/gYrrXAiXCDvFjwH3E3eLaUaWrAEkobTAe5NLwO1wUqrGTDI8F7gDPmg9s1WqZZssZK0mlPkrVSPWgqDlYa0wt3Go8vC1S4rZbCShtinomWojRVnU5fBSmvzLPk0Au/Hua4kqSleS6GqbyUKp1IwWGkEc+Sd6d3+A2wpXF1vlSSp9jfUPyRvsepjqDJYaQQrDGg+BHyTvL/9dislqVeabsGuwGp7OIWqM5bCYKXJOwN8m3xahve7DSUtZ0tGpS2mQHX/CsHZbWyw0oTcn8LV3eTr0UmSqusI+ZPgTxmcDVaanaeAEylcXWE5KsmnAiW9mkLVa0WfzMjH3p61TgYrTcVry8LVTZajcpz8VWq2J1OoOjroC7qGKoOVpu4o8DfAceB9nF/dQOU3ZwmkRuoC95GPqSp82MDxVAYrTVHBARfJF+U8iuOuqsSuQLlPNY/jqQxWKuOtzoC7maeAY+QtV1dbqdIfgLYuSs3yEnlL1YGiG2YDVfV5Uq94uGoVb8QDwNfJ50JRudm6IDXHw+ncfGCl87oqf8OsKuukjVhwMJ4mn+/qCHnr1RarVT6LlkBqgpPkrVSPrHazLIOVSnJx3k7e/1fgEeBwCldOyVC+A9BWY6neXk2h6lVLYbBShSyFqgHjrl4lXw7nfbgUTtnYFSjV18MpVJ0q+qRP/RmsVAHdwQfsKfKuwaWAtc1qGawkTcTxFKgeWylQGaoMVqpYwBpwN/QY8FYKV9daqdlaNFhJdfNCClUHB4Uq1ZvbuAHhqsBB4K/IJ6bzpmm2DFZSfU65P0zn1oMrHfCedOvNFqsGHOkt8qcHeyySTyj6FnAXsMdqGaxUj7tlL9xTdxC4H3h+0DaJ6dWxVgYrVV9n5RPu88AbKVzdZrUMVpJG8kgKVSdWusGVwUo1tMLA9hPAt9Jd113ALqtlsFJlj/NoFabiUApUT610cLsxDFZqgNbgO6inloWrm62UwUpSoSdSqDoy6AvskjVYqUEWVj7wjwB/A7wO3ImLORusJC0/Pz4APL5aoDJUGazUQN2VA9bj5OtZ3YmtVwYrSU+kUHV4pS+aA85aK4OVGh6wNm0iO326KFwdJm+92p8ClmOvDFZS0xxKgerJQV+w/ObUUCWDlSCFqhXGBDy5LFzdasEMVlJDPJpC1bGVApWtVDJYqdAqYwKOAd8kX3fwvcBlVsxgpZLtTCFssgpj8TrwIPDcoC9YPvmyoUoGK61qhdar54BXyFuv7kg3azJYqRycf3J9FoCHyFupzq100Do4XQYrjWSVge3ngO8DL5O3Xl1nxQxWcn+quOfJW6kOrPGmUzJYafiANcCB9LolBaydVswLodyfKuZwClSPr1bYaKiSwUpjs2MH2ZEjg04qjwMvkXcN3oGLe3sh1ExcAeFVyzDKfeND6XVy0BcttVA5g7oMVhqvFKra5Ks3FzgJfBf+//buaCeOKo7j+G92oAYtEdsYrEpbagvVauO9T6Ax8SG89nU03pj4KHpj0qipuoVSaKFFaCsRoQUElt3jxfw3TCvMmV3OLjM7308y8WYrMDs7+905Z89oyeKK4cEcYsIKARFVuT2woFrNU18AYYWeOfA/ZNW2aQusN9lrx2OmMQIj1LOtWVDN+XYiV6hAWKFo5uxT4U3bXmWX/F/MsCkIq37YkfS7bY2jHtB+ITLsB8IKRdaQ9IuSJRpuSvqIXfIirliBsOq5PyyoMm+Y7AgqEFYokQ1JP0paULJy+zV2CW+E4HjqsXklK6ev+nYY86hAWKGs2vOv5pVcvZpgl/BGCI6nwJaVXKVazPNgrlKBsEIpxMpc82XRtmkLrPEK7yfeCIEwnlpQHTsxvZaKqQvK8ZVAgLBCUTRTB1jr+MCas+1D285XdT8BQYyN1bSxUbW/+m8lQ3513wPT86iIKhBWKKWDfA+rS7or6YYF1liFdhFXrBBOtaJqw84dd7JONemJ6Qz7gbBC1RrsN0mzFlg3JL1OWAEcTy/ZtJi6o4wbJbeDionpIKxQCRk3Mt1Xcmf5GSX3IPxAg30Fi7BCMKNS7fng/nkbdl6YkbTne1ERVCCsUCk5Tnp7Flj1VGCdY88BxxvQqFpPBVXD92GtRlSBsELVxcqcxN1QMkRYl/S+BdYg3SaHK1bgeDramsXUrDzf80jHFFEFwgqV10wFVsaciKYOv/kzbZH1Dm+EwMAdTysWU3N5HswVKhBWQI7A8ixD0F6mYVLSdUlXyvo3s44VQjorRVvl/fUfKPl28GKekGr/l6gCYQV0EFjtr0d7Fhp9ywLruv2z0v2tQAhb5Qv1psXUXUlPfEEl/zkBIKwAb3TEsWrNZtaJ9Iltv1pcTakkSzXEPM0Iqyy9sSnpngXVM19QtcQ6VCCsgICF1cz7bvFM0i1JPyuZhzWt4s/DavAEI5Q3pP1/iv0rruhwKN/7so5SMUVUgbACesgzYbWlZPLrrIXVlKRrkoYL14yeT+tAJ9ad24yiqGjDgQ0lN16/Z2EV4jUOEFZASK38J98V225ZXE2pQMs1DEuPeTYR2F5Bzu1rFlPzkrbzhFR6uI+oAmEFFDuwtiXdtu2iRdbV03wN1KTakGfCLtCFvyS9fUo/+0DSgsXUozwx1RIrpYOwAgobWO2TtecT7yPbfrK4uirpwin82m7HuWWePQQ2o2QIvJ/Tkh5bUC1I2snzD9rjla/Ic38aoGRYQwcDaVjJxI4O5mmMS3rPImu0T79m3Tn3A88WQouj6KtW7y8CPbeQui/pqe/B6ddijrXqAMIKKKouJsFeSW3DPfy1vnPObfMMIfiJPYo+kfRxD/7XDSULeba3XAe6E8N9IKwAYisZpZi0wJoM+fOHpHqDq1XoXViNSPpS4YYDFy2kFtXByF1k2xlJuzwtIKyAwQ4r6cVbY3i8ZnF1WdKlE/74A+fctzwL6HFcTUj64gRx9VDSksVUrm/1tVIxFYnhPhBWQGVfBB2+85xNBdblDn+cc859zV5Hn+LqU3V2L82lVFDlvu0gw30AYQWEMmKBdUnJMg5nMt58Wk3nvmGXoZ+Goujz5vFXWfeVfEP2oW3/5g2pVvcfTADCCqjqi8Opo8nvscXVRUkTSt2vMJa2Dpz7nr2KUzmWR0Yma7u7n9lxvClpWYfLjuQasXs5pmIli1YBIKyArl4oXQxzjCtZH2vBObfFXsSpH8dRNKpkmYSuP2gAIKyAYI5afDTripZzvBWhkIHlPbbTIXVO0jq7DSCsgH4iojAIofWupD/ZJQBhBRBWwMnDCgBhBRBaACEFEFYAkQUQUwBhBYDQAiEFgLACCC0QUgAIK4DQAggpgLACQGiBkAIIKwDEFogoAIQVQGyBiAJAWAEguAgoAIQVAIILBBRAWAEA4UU4ASCsABBgBBOAIvkPybpnU9JeM1YAAAAASUVORK5CYII=" parent="dNxyNK7c78bLwvsdeMH5-22" vertex="1">
                    <mxGeometry x="750.46" y="50" width="40.07" height="40" as="geometry"/>
                </mxCell>
                <mxCell id="j-x05HlP8JsFPRfZhArd-41" value="" style="shape=image;verticalLabelPosition=bottom;verticalAlign=top;imageAspect=0;aspect=fixed;image=data:image/png,iVBORw0KGgoAAAANSUhEUgAAAlYAAAJVCAYAAAAcMbuxAAAVdHpUWHRSYXcgcHJvZmlsZSB0eXBlIGV4aWYAAHjarZrZdRw5tkX/YUWbAFzM5mBc63nwzO99IlMliiKru6qaFBlUZgzAHc4ApDv//3/X/YuvnIt3KddWeimer9RTt8Efzb++Xsfg0/P7+eIae7/6y+su5/cbxkuRY3y9Uc7rGAav558X1PR+ff76uqvr9Ye1943eb/y4YdST9aj9HuT7RtFer4f3/11/jceP8mE675+UyzO58j75t/9XgrE1pWjOTgzRP7/t9aSonxAHR/22aKa/Gn+n53eO5ff4ufc4wlcBvPf97qf4+fU+I/4Mx+tGP6ZVPsXp/XrIX8fvidLHEQV7n2I/39BXvz9C+Xv87t3t3vOa3UjFEa7yntSPKYbXtPYknPG5rPBd+cn8XZ/vznfzwy8etZnqdH7ynx6MiPP8sMMIN5znuMJiiMmOVY5mixzotRardVtPMpK+w7XqYo+bXFhcZC7ysv0xlvA8t+t5PKzx5B040wI3C8rmx2/3+YW/+/3Lje5VmYfwCuYTK8Zlqi+GoczpN2eRgnDfMc1PfIN7HfznLyU2ksH8hLkxweHn6xYzh5+1FZ88R58dpyb/SnKo+30DQsSzM4MJkQz4EmIOJfhqVkMgjo38DEZuMdkkAyG7bJtRWoqxkJxmejbX1PCca9leLwMvJILmiJXU9DhIVko5FfqtUULD5ZhTBplyzS33PEosqeRSSi3CqVFjTTXXUmtttdfRYkstt9Jqa6230a1HYCy7Xnrtrfc+Bg8daXCvwfmDF6bNONPMs8w62+xzLMpnpZVXWXW11dfYtuMGAtwuu+62+x4nHErppJNPOfW008+41NqNN918y6233X7HH1l7Z/XXrH3O3J9nLbyzZk+idF79mTVervXHLYLgJCtnZMxSIONVGaCgTTnzLaRkypxy5rtFF2M2RpmVnB2UMTKYTrB8wx+5+5m5b/PmiO5fzZt9lTmn1P0vMueUug+Z+z1vX2Rtjwdu45MgdSExBSEj7ccJpw1rQ7z07bHGVW5o2U5bI7RyMiMiRqPd4obv6domR2VfijTOSQe1RZx5eD0nErQOfO+QspA3f310373xV4+vG2UCuwjRvmdHyiPkeS3kvejkVMJdNgFrxSecAUkaIS/njLNGW9RROcWZV5oX9RJPX52IBTJ1bqk8BhzhxG3T/N5GuYyWmOhq2cdxYjvpDhqr60Z3rRn8rC0AHrNmnuEh2XUg3rtOqvvEa+POwsAjQa8L4KdyMpg6Y0eE0DxhOZiJf5eyfNKDCPh7R/eXLph3lD2SmlB1Hu5ZwlvBqCvZr5VO9YNCOKmvWg6tNNTlI5/Of237M+YYvaTpU1nE358A7LR6PZOudMByqxP93De1Q2lPQjRNISaioAIPoFdrX4RchUgqrXLO7mv6thF4lfREku7+flR+PX64EVTN+BOFAFp0X0nWLPD8hdj2f0iFLSfgSL3u2sOeBKCNfGOvYA7gguTKrV8hq9VDxssIRCSeBRQANWnGBkWBUssFCuzkpqAESrJTZcAJcah3cgGBGhnI2MtspuVbBkXAq4MORSusZqEd385ycdy0zscun+NRaqku4l8uoLNrvrtnY+ypF3RRtDRHLTmTKkTPzgVgGweyPNMutT2g/BLvirXZ6RvEqxuYK5PL9+5gAVCAVpn9cjqDqu3uQzXd6zTCMpMId3AtMrredf2kliCN2hH0nofVli+d7PfawN5QYa48lP3ARSebAxpvOjvfCpCHmmlh4NKjnmoFxdJFgSHLOoxPxfStZvOX2+9YD+JsdwUiQZDZz71vY8aFJJ/U9Ea7FXJKfjE1H9dALNZwQBMQGHa5DcZgfH1TMmmXstCQk1TfGq5KKO6cm0pHTy4mUCwPXUTwhx6ZGrwV4RL1sUlFOdc8IVoOAUOq1h02IQzwPQfQdSI1ibo/Gb0HosRK49QDjwDCJ5Kle0LaFea9QBLTcZoI5UH/3Ta55QmljXPm5xN/PW9MpkHDAu2lwbNruhPmpNhi6AXmobLpaE+tR8ZGYANxzdx2k4e8aQYalIqtFAY8AewNILZJ1e54cGD0s4xOhlMPsfTxzH5impTGHWmPGRO8euuswGBrgCZjAkFIns/Hn9scIQh3g6pzDoLHcA7RrAMoX7Nz3xMeT0INLs3PFiQ2xIS0Jo8E3xoRWG7fG6xtE8nmKMXtaSevygXWuftUe5y7oGw0yGA2dvaMe5TZ4Jh6N5BeiNHICMcGgtLowxM5bps0W6FERh4KX+gZIu+57W3+ZqTJmqQOSip0yVrtuEwdMVyME9oUFxh4MfJayIAi5dvvTOm0HVS1cexIpwIq9PDyeW/Qa5M8uB/WO55cg0LhFXD+fXHMBZTotuEskJ2KTHNRcnmuuWffxy24Kp6NgOm5TvolC62IuwoE5ksUYAEB6Jw6D6ARJ14J8Il07IYEbawb43ZAFkUDjoExbWVaWD2NPt+fRnRpnRboEKgEiXdaKJ2isNjppXhcyF1CtHpghiILC7IlrhFFRDU26iijPi+E0qoqp9YFZHmiCuh6w4mYaASC3OsPIF9nA01hG+o1MwFuWqZ00NmiJ+C9Us0X0c7AJ/MPug4S5ApahLJETwIacPpccRdEKq5vAB6eUXiQJBAQIPinL1VeEIhfUTb4qBoK6E50KWJew49oile7RmaXCxDROvOusAMoXOgKvoSklRhtiTGiGRMC5qyYMrGzCZeVbQEZmtUEQGQaISehV9t5/qoLD1BLa6wE9i/bm9pMdwmLwkVmmZqWAHMUdE4pLjIxa0BmkXgyfFSBYWym9l0JJsgWKmQWFDd3X3DCjIBOUNUxJIngQY31jmhobvYFDOohtSw1J7CjtiYEpAEkvSIdVHJHaqPOBSPkm3/toAd9zQH7XAfuqHzVGZAPAfVjV6LUrizAZpATfTdqopSQhAuf0siDFlaOA1d9fVqtqbHx9jUCafTSnhgC3KaFdcHEYEXOgdqiyi4+5+IysCQ5w7YdB8mI+8SvDiTsJoZKKIoTp0YIafB/Kv3QB5EJcO98oP8gzK2pPLpAjMzs+9JC0hjA4boOUYb8PRmumgOzQo0hc2/IjK2iGoDVllaMeGrysUGmOSFYCh4saROUnQdBdBykAkm8L2GOpQFtqGokJwlHTG+wHo0erXxjUriakLswKoIw9Ayao2/o6b2OLwktHlvY8VHwlDRYVZArDKkdEj4BH78wlUKpgpJwKE7cwRnkaU9SED49k0s7LpBy2cXoZB7e8W26nSc4l4KA4vNwEuutHp9rg1lFMNmjiWqbtCRyCJklrhCFAlCoArCZ6GACSATQbczi+Fkchisg33YOVeILZvlzz/bd0f36AlOvJL1LaUGYqLqoYMBzsWBMAjBIO7fNxBJSBxIBCujiXBy81FCZDZ2P+ChYWq6IMMoiz4BOQO96Ze2EOKxfLVVBHRcvbvAFAqJYO6O6KbxOsjS/i2dESQgLAwFSU1mEGoZB5C65A5oJ5m2RaqFblrtpjJxOJ6B4jaKjjLllTDd+DEaBVWiij56x5s3cweI4oXbscABGuBiZy2BzR6ciQtAotDEqEFztADBV+5IRizJAXN5DaT+NQmKlJuZTqq79vSR9Opp3Ae13Wnk1KuYJdYgcQqs2ZMJolpJvMgwGIHrMEm4RIkuQSigU8G0txgSOO8TdBqlbh7vB0RI6/hd1Q5mCo+P3FEB7qVwPWRFmnAd4BWsPuB/tQv5QxBkVnid+IIvWM0BbOp56lJ4PoptkGLR4Fj4HBgRceNbo7yy4VxoSJXi5UrzeWhcwNHloBM9OkJ2UdD0J1wX+UQmGSoxS94n0xIIHcHsgHNQZvpN6rEwWSONWH4VFz2M5OAeyOrljB6jJCtbsDDgRvZ32a0jun61C4NjLYrw3OfxiHksLzmXgnaSKJYRTvkbZoJNwhWjivgwrFx4dmChCSwE/hdWkgdDfdbrdO8jKjCnlLx+LWdAylqGyUb7Uez54ZwQzeANyJ0OJ8wiHMoaYxwZgJkZoX/HXlH/ySJKUgpxNeq1IIGcu0u5+8bTr0FMALY6HH2gtUv/RAEH06uIAtRnfeLSW7qZQIn9F5o3g4vwgawLcBSgbz79xwtPANmC5Pg7S6ClDyOOVsDAgEEX2563y3/XalEUpjCl40enxvcXU6R+UexGv5e5EGFVyirZPF8E3cN1bqIx6AgvR0bvZGDRDUeCwRJhj9BPNiOaCPiPaj6yhQXajO0kCKLaDOHYimiqyWvbIz29kjxavqFoGiJ1IwiOojOYiKj0jLVqUviE/gPfjRfEA9BsORzsF1ht5RV3tWlDBgXkcNXJ/KvvDY4z6AELxt+roikmJYA1WgtuinhkomdLSFzelrbkK0zPGCeaSSeomEBUTNoUldx20AIpM4oTZI2cbxYCQqo1/iDLDdAtw0p3hwcgzmoM75LFp6f1cuAc8HVemchHYEkiENGk9jGnmSnHGg78TB6GaFy3h0Z0+OaB9pRMrzwWoDM2wn62/b7zNt0eEFipgMjngHtV4Dkq1mFZmGThgyPzRxLjKiV07Er01R+0gdORCS3AHJuFYdijzgIhGZEAVaMxWBa90ILZecUX7aeXGA5Ub9z/jougMo0uozTrRQTwgYuk1ubkuQdRlNItUQepFS9jYJrTI/DNAgjHTgdCaS1GrcQGitoVQnnhICV8pXXgUH9zGx265ZBXxwaSY6j5m2GNwrHaHMSUDkHE1hrZXxb+gahZliQDCRpwNhgT0ugTOoj8gTAlgwDuhDruRWnjBcRPtyuDhVjKaAmE/ch3hEcwFSYJIAik2FqmQkgG2mXYsKKileEJxEcd1HV0mlb3y0xxBK/gHlFu90TjALh4hLI+MVdlFWkLz83YDtiKmjRAjXHaKyysfodfxFNdGc3lc6db20lUBZFQaYgPiyyPA+qi7Bt5yZcE3TbKZN2SE0Dpkt+AnEn4RMgrrUOVMbom/8Ey4LawsxY27xPXTZ5cWXLNUagBl2HNE/ezorjavTzTxuLJxpVcx8Hgj+JLZGITR0QETEpUO18YbSeAdX6a2G6QZGgWpC5C7tSjOcyPa8Xm4eWwLcQh71KeNOS9JWQR064autLFxk7wh4th6BWoLNk7Lk6hUCjsA0ai0hxkqCqTQxmVfeUNs2YXpIMQ1EOYIwQwnU0dSNG5MtLpRJB76D0TejGBkzGT2qMvcMB5mrWH5KTBM5r3CUR5JzsezRV4YrHT2Z6hPllBOaFliN5Tgxx6jgxLzAKGtDMFZ2wPf74GaUzMj0u4qCnwiPDLGTBAj0Ydp9dqlwWqjjYuYjGIDW+EnWGRp6Y85U8FUNjlOjpbUwvEG8eUMqT8g61kD23vmLBl9fNpM3toutFeSryJgFijGu/UBgsdC3Dg179IwB4vaHp4cGtnl6lq2VopredYmkYX+WTPAui1BlFw5GhbAgETd2Klk+gezZNGErJfuahK2FS1i/z1Cvrz5BESMFEU8AtAFC8SJV38+ajHwAVMLnEPfGD6znLQuDdOYBjwGxg9WxdMTEcE6ljKLFrG+BfBlsIeCxiztK1zoaMLZtdyFHiWjWlOjnbIm7J5VKK1Ntqa6q5lstYKYrzF05Dtyw5qgIaB+INCrLZqt5c6Z6FmtDCyolhFNWgSjNpt8Ar62N3Iz2/JotAKc0MRYNKwN6VtgiXGXRe9YXkW2l8dMWsYFIg8y3YS1n49VoIsuvh4/cbNWADzdoCpYWhFo2N8o47UaBE5bIuXQPij/gzF5yoYUUgcaJvaRCgSkiFIecBRW0qKiKLMMp3dUF3IRTqFLDpCAeHJXrR61glugYZRmliblBmJZTBkVKjtlPWirdty1r/rkcnNJHO4f4Syy1hg+lTyi9gnQeCbvWGfsodFQk3RNMb6QF8M2PQKiahzygqAdnVuSFtudz7kLKpBjaBDuOsUcVrXODM5pbQYdgRwpRHxLFgQh4Fx2D46iPLaTEnc1ApiznITAM0gLkNlNGcPaa3EMEDj40YVBBPXVfFwRCCNJomsQWnBHLmTN+26SeSgVEB2e6AOX3gdgBOJJtywTi2OLILP65aopJeLEK8h8oP02zAkMGhayok7hp/UF3UrI0eAqjfJaMa9Dq/XwiTyDtrBLcZOqC2epvrJkqwEKKBztv3qE5COkWin/0UO6b94gbhX6ikAWkIP76oicQOXhqprWmIFZ0A0nP55VTaRfbep6vHsmybvETt+HNboPE8mJXTna354V8phSuGDswsj56WURGhZ5UbHLUd8S4OSW2HOqFsQMQffsbWmDlU5ayIdKE+e1ke4wzMa1aMudwaGEkryBwzDYA+4EK/DwCUOkRWVrzQw+Mchk5dVgPoinHLwLzZK1bwboLhqNljG8yCMcHwlEZ5/cJPxl5LM+Toa3hMBaUQtDlZv25WfiIyj62sgJmjlQJSM4nNst4SEJWkHd3qQztB6NNEKWD3gHNvU0g7aaM3dEfJ8KfwNMBgXTvLe4nmaOgR7Q5VcOq6Nd8IcMBsG2zkMoWi98VjZpyEjb7y0hTQ/UHrVY04PD8meI3mulOWgtgcA/y4ycPcSuaA6sMBpCW5Q4YTs71KRJRAqwTxCYkHXsuvYZQBjBGsIAwYa9ofkwKQx/rFNgQvhlLmE3HYC+Ckl7iCknpgCwAjHRoWPGs0hGtOtBGPQQ0XWZeQEGkBuo+MUqpj4ucS+JgjnvmS2617oLfA4app15lRTVeaGToPeYZZQyoR7/1Lu7f2D686Z7eLCM33V3Swrr2cicQRkiAcpFsKEsnxFp5+VeUPoB9iPWQdehd6/W29YYCV7e3IhiGE9tP7vNeJzvQ+L9h6Do5k9EJFEWvEYzQTmAS0OqeiAIT6fNU3kyqTbApawk+fcsMK3/yQcHvjyKqPtx2jEaOIOhiou0EaArEc04YAQ5cY8qpPKFtQfkBSC0XwIMbqxXoEPwBFgIej4SR6CG04OarJ+zno8g3IlQyjCaGWWK0NOyxzLpZNqDrkSYA+onXDSCS1pjpX5hpYoAXTjTCWtgOca5yEZ6GLxCUw1+zw11ARtau0FbIBrQhf35BAiUzYi12YXsGUM7FPH5XA8Wxg6YwN23PucgkTaBqR+LyrAWfSs7ju8C6FxZ+nxDRRPo8yHPMk+ZEfmwMUca91brY+YAqCM6B9ualr0IzlFrQanapnBoBA+sF7lWyA4ytsSU57nCZ6m2+HzOxegk6iev+Fr3x3FlYdWkCFG62VVcDBIfWgZOtLmEgl/3wvkMDiWJekL5DG0hYGQq9EfhUWXkGH6HReB0JNvE90MqV29kieucgM2iT9aYTU0B99UKkI3D1CQ36kcfrfmNbt13OpWOuhvid/8GpnhiL5k7AqoAAAGFaUNDUElDQyBwcm9maWxlAAB4nH2RPUjDUBSFT1ulIhUHi4o4ZKhOFsWKOGoVilAh1AqtOpi89A+aNCQpLo6Ca8HBn8Wqg4uzrg6ugiD4A+Lm5qToIiXelxRaxHjh8T7Ou+fw3n2Av15mqtkxAaiaZaQScSGTXRWCr/ChHwMYR0xipj4nikl41tc9dVPdRXmWd9+f1aPkTAb4BOJZphsW8Qbx9Kalc94nDrOipBCfE48ZdEHiR67LLr9xLjjs55lhI52aJw4TC4U2ltuYFQ2VeIo4oqga5fszLiuctzir5Spr3pO/MJTTVpa5TmsYCSxiCSIEyKiihDIsRGnXSDGRovO4h3/I8YvkkslVAiPHAipQITl+8D/4PVszH5t0k0JxoPPFtj9GgOAu0KjZ9vexbTdOgMAzcKW1/JU6MPNJeq2lRY6A3m3g4rqlyXvA5Q4w+KRLhuRIAVr+fB54P6NvygJ9t0D3mju35jlOH4A0zSp5AxwcAqMFyl73eHdX+9z+7WnO7wfUPHLOycmg4QAAAAZiS0dEAP8A/wD/oL2nkwAAAAlwSFlzAABoRQAAaEUBxmOuIQAAAAd0SU1FB+UBFhcwOsJsW9YAACAASURBVHja7N33m2THfd/7d53u2dmM3QUWi8UiEyACEQgQJEGKSiRlS7REizIt2SJNS1eyKdHy/WuuLKcrXtmWTSuYtGRJlERKDCLFgJxzxi4WYXOe6a77w6nBznafnume6XDC+/U8zQUn9/ekz6mqUwWSNAN70r/bl31s84g/Y3PB91xiaSVJUl200itb9rGs59/VZEN8Phvx52QD/o4Ny/77IjefJEmalPaysDQotGQ1ea/ZOoKeJElSrYPSNOuWWTdJkpobAjT5gGq9pWYKlkCq34W9O8THxmwe2LjsNZ9eG3pec+Q9jEv/trlwWFYrnZey9G/vOSqmVzf920n/3UmvxfRaWPbvuZ7X2fQ6s+x1dhrbpPdfgK3ACXdbyWAlaXZ2AodHCFbrsBnYkq7/W5a9lh7I25RerYqXtAOcTq9T6XVy2etE+vfUpAMYkw/BkgxWUrO1l11sx3zRnSd/GG77ste2Za+21b/AInB82evYstdRxtDy1RuulpruOtZeMlhJWt8Fdowhagd5Q9eOntdmKz1Wp4AjPa/D6d+xhS1JBitJK2hxvkVinYFqC3Bxeu1Kr53kY5o0OwspYB1Kr7fT62TJArgkg5VULZvSVba7/gviReQTjV8C7E5haqsVrpQTKWC9CbyVXkcti2SwkrSK5Y/dryFQbQIuXfbaTd46pfo5mYLWG8tep9fzA5e3iEoyWEmV1OL8vABrsAu4jHxJvT3krVFqrreBg+n1Onl3oiSDlaQBdgN7U5jai116WtkJ4EAKWQfIW7hG5hOHksFKKp01PrG1C7h82ctuPa3HSWD/stehte7LDoSXDFbSVK3xCb6NwBXptY98qgNpUo4ArwGvpteZtYSrLYzhsUXJYCWpKEytYbzUnhSkrkxhSpqV14BXUsg6OOo325IlGayksYSpzujfclV6XUk+HYJUNkdTyHo5vYbezZ2oVDJYSSOZI59jagSbgKvT6yryhYalqjiXwtVL6TX0tA4OfJcMVtJAS61TQ3Z5bAWuSWHqGqunGnkxBawXyZ88lGSwkoawcyccPjzKd2wBrl0WqKS6WwpYLzDkGHa7CiWDlbSS+RSmrkv/Sk31AvB8+ves5ZAMVtIorlv2cvFi6byFFLCWXqvyiUIZrKQaGeGkvgd4F3A9sM3KSas6DjwLPMcapnCQDFZS/WxOQep68mVkJK3NgRSyngVOWQ4ZrKRmuQq4IQWqtuWQxmYxhatnyKdxkAxWUpXEGAlhqN14SwpT7yZf8FjSZL0JPJ1C1lBPFa5hUl7JYCWN0xBjqPalMHUDDkSXZmEhhaunyZfWWfWYBge8y2AllSlMZcCN6eUafVJ5vAY8lV5mJxmspFlpkw/eWCVUbQduIm+hcp0+qbyOkrdgPQkcG8PNlGSwkkYJVKu4LAWqm8iHaUiqhk4KV08Cr1sOGaykCRriLvXaFKaus1pS5T2fAtYLlkIGK2m6bgRuxvFTUh29BjxBPg5rvTdfksFKGqCVwtQtOF2C1ARvAo+nkOUsDDJYSWMyl8LULcAuyyE1zqEUsB4nn7pBMlhJRWlplTPk/LJAtcOKSY13ZFnAOms5ZLCShrMBeE96OWWCpF5HgcfS65zlkMFKjTTE0jPtFKZuxRYqSas7AjyaAlbhrCxLg9tdKkcGKzUpUJHC1K3AxVZM0ojeTgHr0UFf4NODMlipFoa4S7wRuA3YY7UkrdNB4BGGmKZBMlipbq5NgepKSyFpzF5JAWvgRKMu9CyDlSpjlSb3y8m7/G6wUpIm7Bny7sH9lkIGK1XKEOOodgC3k7dSSdI0PQI8TD7YfdSbQclgpelb4cQ0lwLV7cBmKyVpRk6lcPUwTjIqg5Uq6kbgDlx+RlJ5vAk8hAPcZbBSWQzR7Xd5ClTXWS1JJfV8CliOv5LBSqW1JQWqOzj/0I0klVU3hauHgJOWQwYrTU2MkVYIKw3wvAV4L7DTakmqmMPAg+RrEBZygLsMVpqWvSlQ2e0nqeqeTwHrgAFLBiuN3SqtVBuAO8m7/easlqSaWCDvGnwAF3iWwUrj0k53ZQNC1bvIW6kus1KSaup18tar5yyFDFaalO3krVS3WgpJDfEoeevVsaJP2jWoIi1LoOUniVj8qZuAHwOutkqSGuRS8jVNF4G3ej8ZVz93qoFssdJKd107yVupbrZKkhruCfLWq8OWQiuxxUqD7rRuIW+lutIKSRK70/mwQz6Du1TIFqsmBqmVn/jbAdyFrVSSNMgTwP0MWNhZzWaLVQNDVQhhUCvVjeStVFdZKUkaaDdwBfn0DG8P+iLHXjWTLVYC2EreSnWbpZCkkTxC3np1oihYgU8OGqxUO6ssnHxdClV7rJQkrcnBFK6eH/QFbfJHC2WwUg0MeOqvnQLV+3DRZElary5wXwpYi0Oeh2WwUlUstVINOJj3pEB1rZWSpLF6IQWsg0XhCgNW7Tl4vaahqpUGqBcMnHwP8KPY9SdJk7CT85OKXjAtw/JzctuAVVu2WNXMJuB08ac2k7dS3W6VJGkqHiZvvTrV+wm7BuvLFqua6VLYSnUF8BHgBiskSVOzh3xqhpP0rDe4/Dy9AzhjrWrDFqsaWOWpv9vIW6q2WClJmomT5C1Xj1gKg5WqaxNwN3b9SVJZPAzcS8GIjSxdkDvWqPLsCqx4chrQ9bcX+BHymdQlSeWwB9gFHKdnQtGYgpUztRusNEOLxQfhjSlUXWaFJKl0dqSb33P0LIezdD53KZxqsyuwYpamUoC+J0oC8H6c8FOSqmBpQtEfmqPqxRarioWqUDw/1UXkrVR3GJYlqRICsA/YBhwCzg66SJu6qrdhVW37yAepX2EpJKmSXiUf1P5a0Sed86pabLGqthuBDwOXWgpJqqzt5ONi+8ZdgS1WBitNy13k3X+bLYUkVd5G4KqUow5YjuqyK7CkVpj0cyP5IHXnp5KkenqYfFC7E7JXkC1W1QpVu8i7/m62SpJUW3vIuwcPM2Ay0Q04majBSusNVftSqLrGKklS7e3i/GSixy+4ThiqDFZad6i6PoWqPVZJkhpjO/nDSWfIp2S4gBOJlpNjrEpkwCO1t5KPqXKQuiQ10ynyMVePWorys8Wq3KHqbuAeYN4KSVJjzQFXpv/ebzkMVho9VM2lQHU3Lk8jScqvBVek68PrOGeowUr92unI6Okj3wJ8CKdTkCT12wtsAt4EFixH+TjGagZWGKS+k3w81Q1WSZK0gmfIx10dHvE6I4NV/UJVO4SiR2UvTaHqGqskSRrCiylcvdH7CdcXnB27AqccqkIIBPq6/y4nH1N1lVWSJA1pR3odo2CuKxmsah+q2iEQ+3f4q1Ko2muVJEkj2k4+kegJ4KjlMFg1JlSFFKp6XAd8kLwbUJKktdgKXEy+/M1hy2GwakSoKnA98IF0MEiStB6b0/XEWdoNVo0MVe8mb6naaZUkSWOyCdidwtXbF1yPrI3Bqg6hqlXc/XdTClXbrZIkacw2kg8vOQu8ZTkMVrUJVQOe/ruZvPtvm1WSJE3IPHnL1TnDlcGqFqGqlUJVzxwitxiqJElTDlcL5LO0y2BVzVDVTmOqCkLV+8mf3JAkaRo2rBSuHNBusCp9qArF81Qtdf8ZqiRJswpXfd2CS9eqLbjooMGqpKGqwE3Y/SdJmn24uoQBA9oNVQarUoaqgibVpSkVDFWSpFlbGnN1mp6pGDRemSVYn1A8pmpp8k9DlSSpLLala9P1BoLJscVq/K5LO66Tf0qSymYj+dqCp+hZ/saB7AarMrqKvPvPZWokSWW1Kd38H6dg4WafFjRYzWSPXOz/8OXAPbigsiSp/DYDO4AjKWC9w1BlsJq6glB1aQpVe62OJKkitpIvr3YIOGk5xsOxaiOIMRYVbCf55J/7rJAkqWL2pWvYTkPCeNhiNUKoaoXQ+/TfFvKWqndZIUlSRe0gH9T+Oj3TWtktaLCaWKhamlV9mTngQ+STgEqSVGUXk08k+hp9MwjJYDWBUFXgHuB2KyRJqond5L1/r1gKg9W0Q9Xd6SVJUp3sJe8B3G8p1sZxaSuYLw5VtxqqJEk1dne61mkNbLFaQaf/Q9eTj6uatzqSpJrKyKcROkE+FYMMVhOxD/gw+ZwfkiTV2Rz50jeH6ZlA1JnZV0+lWibGwt1lF/k8H7uskCSpIQqvfUuPDLatTyFbrHpCVat/WoWN5C1V11ghSVLDbCdfye01ChYeseXKYLViqCqYqwryMVU3WyFJUkPtIm+getlQtTq7ApMNxU8A3oVzVUmSdHu6JmoVtlglBdPM3gj8iOFTkiQgn+PqBPB27ycc0H5hLRptwGD1feTzeDg2T5KkXDtdG/f1fqKLLTVLGl2HATOrX0Q+WP1Sdw9Jki6wEdhKvmDz2QuuqeSTPHYaXqBGt1iFEHoLEFIav8JjR5KkQleka2Vfy8RZa2PLXU9H4AeAO9wtJEla0SXp39cshcFqkKXB6sFSSJK0qr3ks7K/bSnOa1xX4IDB6nvJmzV9AlCSpOEzxN3pGtpnrqFFaVSL1YDB6pvIW6ou8xiRJGkkG4HNwCs4M/s7abMxQvEkoHcDV3tsSJK0Jlena+kFujSzG6jpY6xuIx+wLkmS1m4PcAZ4Y/kHI82bPLQRYTLGWPRGrwDe57EgSdJYvI+C6Yq6NGu27dq3WC2NqwoXJubNwEc4/7ioRhdSMA/p1c0ghvOvECHLIIvnv4Ys/7gkTfNctfx8laUWlAvOWel81Yo+Gb4eG8gnD30FWOgNV01R+xC5MY2r6g6RqjW0LnA/8EqMcf+qZ7UQtqYQuyODXV3Y2YKLOvmDA0utxOYtSWuWpQCVzvXngBMtONSBo8DhrfD28RjfGOJ8tR24HLgjg91dz02jWuoN+nbBNmpEwKp1Mh/wFOB7gJ9w31+7Fry4GOOfjWUHDGHHHNzQhWs6sC2DTV16GxglqfD6FVKIOkU+tue5GOOzYzvXhfBvu81qbBmnbwCPNfGN17bFakCo2oPjqtZ9Y9iBe8e4nY4AP0yvpbD1LuAu8hau+XRWM2hJCuRL0Z1pwwsLMX5jkr+sCweB3ZZ9Td4HvEVeQ4NVLY6+/lDVTht6m/v7upyKMU70QIkxPgc8t/T/N4RwzwLcCsxl0LJpXmqcDnAY+Makzz89HgE+5o3dmmxL19y/omd+q7p3CdayKzDGSCuE3g33AeD97uvrMwffPRfjAzMMzNcAHyWflM5BplJ9xRa8vBjj/5nlH9EK4be8mVuXHwI/aNIbrl2L1YBQdR12AY5DtgDPzHj7vgj8bgpZ16e7ybabRqrBCSYffP4a8OcxxrNl+Ju68DxwrVtnzZa6BJ/v2da06Hl00GBVTgVdgFvJx+u4DuD6HYsxnihRiH4WeDaEME/eVXhPOjF7dylV6LTdgiMd+HInxpMl/PseTTfnnlfWnJe5i/zhghPLAmtt1SpYXQG82v/hu8gHrWv9Stmcm+5s7wPuCyHsIu8q3ItP80ilDVPp+Pwe8NRiOQPV0vnl5RCcfm+d9qRr8beWf7CuJ+jaBKsBTwHeSL5sjcZz1/FyBfaDQ8AfhRC2kLdi3Y3TN0hlOo8cBb4eY3ytQn/308C73Xzrchv5E4JPFQWRRYNVCW9/+kPVjpSQNR6nY4nvKgsC1kng+8D3N4bw7kW4pwMXYSuWNJNA1YanF+F7McajFfz7H0036t6grc9dKVwdWf7BxZq9yXbNN+Au9+Ox+fuq/uFnYnwaeDqEcBXwQeAyA5Y0+fvdDLpdeCzG+M0qv5EY44GQ370brNZnV7o2/01f8q7RSbnywWpAF+AtwM3uw+M7QVKBbsAh9pWXgZdTN+EnyPv9PVFK4z9fLAAPd2L8+xq9r1fJl7rR+twMvA48vvyDdbrTrXywKghVO4E73XfHnUni8Rq9mZPAH6b959MZ7LH5ShpLoDo3B/eei/H+Gr6/bwH/zM08FncCB8gnfa2dSgerTcDp4g22w/12rJ6vcWL8I4B2CP+0ky9d4aSj0uiBahH4TozxkRq/z1P4IMy47EjX6lp2CVY2WA3oArwJuwAn4Rt1f4OLMS61YH0mgx22YEmryyB280D1YN3fa4zxdAihg3MijsvNwH7gyeUfrMO5t7LBqh1Cb7Ldjl2AEzuhNOi9/n4KWL8KbHbrSwPd24nx+016w214ZBHucNOPzZ0pXB2r2Q1HNXX6k+2d+BTgJDSy8SbG+EXypXPOugtI7whteCDG+NuxYaEKYBEecBcYq13UsEGkci1WA9YCfBf5ZJAav6ea+sZTS91/DiFsBj6XQdvlctRQGfAS8NcLDWrBLjgnnCwYgqL1uZX8icvnDFYzsqE/VG0A3uu+OTHfaXoBYoyngH8fQriZfLkcqSkC+UzpXy7TOqEz1iFfP1jj817gFeBcXe5CqnSBK1oJ+07yCR81kZJHu8LOF+OJGONvt+FhHMCqGsvS1AnA/4kx/ldD1QWetgRjdxkDugSreKKtVItV6B+wvhcHEmrKFmL8dgjhoRb8dCefZNSHCNdw4e4WX8xHLubyE+/yrtqs5/9r+FNtBvd3YvyupSj0A3z6fBLuIJ+I+kDV30jlugJ7TrrvBebcHyejBW9bhWIxxmPAH4QQbsjgJ4ENTbuI94Sj0HOYLgILLVjs5LNwL6b/PgssdPN/zwJn0it2z3cDnON8iwnp68Ky3zPHli0Z3W6b06db3TxDzc1DiNA+l09xN9+FjS2Y7+Tfswlot2Cuk3fjzKVXa+ln9wSxxgWyDLIu7I8x/rFH+IrH/omCcb5av7l0TT/Qe82v2txW7YrsyIOWrbnOfXFyF80OPGglVt03nwGeCSH8wwxuqFG4Cj3/vTwsnUth5wT5Y9JH0utwGo9WvTcbws45uPhsPm3LDmBrK59uY74DcxnMdc+HsFgQxKq+rc904asxxlc9qoe6wY84mfAkXJeu7ZVe7qYSwaogVG3BAesTP3HEGJ+yEkMHrL8E/jKE8Dnyi3PpL7jLW5zSYrmLKTydBN4iX4X+QIzx7QZsv8MMubxGWsx7bxcubcHODmxIT4wOav0q8z5AFx6p+iLJM3CGvBVU4/de8idQTxbsqwarMZ3wiqZXuIN8TUBNNFtpDfvrfwkhXJ/BP+iW6I42haiYtmsXONXNn8J51laKkbfxy6ywKHkI4dZufue9J4OlrsqwbBuUxYlOjL/nFl3ThfP5RXiPlZiIneka/93eC1KL/JHMsit9U2ZBIS8H/jE+lTVpizHG/2AZ1nFwhfBJ4MpZXf/THd6hOXhmAR6PDZ5/qCT7w9423L6Y7xMbigbwT9EfxRgPulXWvC13ZPBZH46Y6I39/yaflb2KwbvcsbWgbf4OQ9VUAu0Zq7DOZBPjn4QQtgOfneRNTLpAL5JPsvdwalFR+faHA/QMzA0hzJNPkHgj+SzUk75Q748xftmtse5teaQVgqFqcrJ0ra9ksAol3nGLxlbdCHzcfW7ie3TI4MmFGL9mNcZ2h3sPcPd6LpxpOoIAdAO80oEHr4A3X7Elqk77yaa0jW8hf6R/R9pnxnER/28xxqNWeWzb6je9yZ+4r1HB1T/aJd5pez80h3NWTUUahPOslRjrjcL3QgiPAp8Z4bhbClLH5+DJhfwEc8pJW2u9nyyF5HvTixDClk2w8xzc0YGrgHaWT08xTNgKbXhiIcavW92JnCoNVpN1B/A8FM0NbrAa9eRSFKxuB3a7n01tG7xoFcZe0xPAfwghvA/4UG8rRJpHCOD1DfDoOTjkOBjFGE+SPyH16lLQ6sIlwNXA9eRPSRe1anWA/7UQ4xtWcSLOUsG5ICtmd7r232ewWqeCULUjFVfTuxPT5C6U94UQXgQ+CWwlH0r4/Dy8cirGV6yQhgxaLwHfSt2H17Thyi5c24UNbXjcVqqJeyOD6xzAPnG3ky/QfKQqf3Ao4UmjaHqFHwNuc/+aGp8IlCoqhDBvd/FU6nwH8KMYrKbhEeBbyz+QpQBTxukXshLurL0futxQNf1gZQmkajJUTc1LlmBqbktZ4B3dEifarGQnhKLZVW91nzJYSVLJrldHrMJU9WWBpUlDDVYrCP1dgNcCN7g/Td0pSyBJq3I86vTckDLBBewKXDn9F/0xdgHOIN+2h1wzTZKaLDNYTdttFdkvyqHd31p1I7NbDqTZyapCT19I0gwZrKbrypQNDFariTEWNefZWjUjCwYrSRrmJtRgNX23lTbMlOlvKXgS8FZgj/vPTHaIgF2BkrSqTjmH+NTdHgYMZDdYDdbGJwFn7YQlkKSVtWyxmpVbKZjgvCyBJivhH/Ae4GL3m9no4jw4kjSMjlPTzMrFKSv0Xb+2Gqz64v4GbK2aNWcRlqTheBM6O7emzHCBMnS3lK0r8D3k6wLKHUKSyq6TlXBpuIbYQUGrldfRC82XtUhN4oKikjQ0z5ez9Z6UHUoVbMoUrG4BLnI/kSRV515UM3RRyg6l2ihZSX7xXFFxJEkyWGkFt6QMURpZSfbGW3BsVbN3CEmqHrsCZ28HJWuYKcN1tIWtVZIkg5XW5paUJZoZrAre+c3ALveLcuj6hIskDWveEpTCrpQlmhmsOsVJU+VhsJKkIYOVT1KXxi2lCDnMvivwRmC3+4MkqYLmLEFp7E6Z4gKzeLpgasEqxsJQf7P7QrlkQAhhi5WQpFXZwl8uhZli2oOvphas5kLo/WXXAvvcD8olNWtvthKStKqWJSiVfSlbXKBTx2AVY6RLX5PcTe4DpeXDBJK0eqoyWJXPTUVBZ5obairBKoTQG6ouA65z+5dTGy6xCpK0so5T/5XRdSljvKPLdFutJr5TDBhbZWtVSWXAopO1SlIprqFak5tqvVOE0De2b7vBqrzSGKvtVkKSDFYVDlbba7tTtIrfsP3SJdZy0jtJMlhV+jI2uwacie4UMcbemdMy4N1u89JzbhZJWkEIYa9VKLV3zyr4TvSXtvu7AW8ELnJ7l1vHFkVJWs21lqDULqJgwtBKB6sYIx36pli40W1dCQYrSVrZPlzOpuxunMUFbmLBqmDQ+j6cELQqQghho2WQpIF3nz49XY3w25c7Jj31QjbFH+zYqmpxcWxJGiDasl8VU88eEwlWSzOtL7MFuMHtW51zRssgLEkDdX0isCpuSBmk2sGqYND6DfikWdXuxnzIQJIGXzwNVtUwR0HDTjbZfWPMF+T+KRbA1g/vxiSpJkIId3UduF4l7y64xk2sLzebwA7X2w14FbDb7VrFGzJJUgFXD6mW3SmLXGBSyXgaF0/HVlUzVYUQws1WQpL6+ERg9fRlkW5Fg9Vm4Hq3Z/WkZu47rYQk9d94WoXKuT5lkmnsH+PTLn4jbbend2WSVAchhE1dy1BFbabU0DO2YBVjZLE4WKnC5xBLIEnnteDjVqGyrp9YCJrEz9weQu8P2wO4SGX1786usgqSlOsUDIJWZexN2eQdk2h9HFuwOt7/B77LbVgLP2oJJAlCCPNWofImnk3GEqxiLHxo0W7AethpCSQJgMssQeUVZpNxzmk1lmAV+rsBrwO2uf1qIbogsyQB8FFLUHnbUka5wDgXZh5LsGrR1w14nduuVn7CEkhqshDCfAZbrUQtTDSjjKcr8ML/O2+wqh0neZXUdLu7k5tTUtMPVn3j5cbVHTiJJw2vxQWXayWDuD2ES6yEpKZq2Q1YJ3Mpq1xgXN2BYwlWdgPWWxficZ8OlNRQIYRtHbjIStTKxLLKuFusthSlQNXCFZZAUkNdht2AdXNtyizlC1ZZ/x+qmsnyzfwlKyGpiWKMz7Rgv5WoZbgqX7DqifDXuJ1qJ3ThKzHGNy2FpKZajPHLwCkrUSsTySxrDlYFk4JuBa52O9XO92KMr1gGSU0XY/xiZpdgnVxNwRQa621xWvP3hxCmkvw0GxmEFrwcY7zXakhSrhPj71iFWunLLutNzmsOVq3i5KeaCHByMcY/tRKS1Mcxp/Ux9uyypmAVY+yd72ETtljV6qZsMcYvWgZJKrwGvj0HP8ggWI3KuyZlmNkGq7n+bkBbq7wbk6TGOBfjD7tw0HBVC2PNMGsKVosT/qM0M4F8sPoRSyFJK4sx/mHXJwUNVusNVgVPA7aAq9wutfBqjPE+yyBJQ18Tf9cqVN5V9AwdX8+TgSN/b8HTgFcBG9wu1ZbBQozxK1ZCkkb2DewSrLIN9DQQddcRrsaxpI2tVTXIVV3HVUnSmsQYHwOetxKV1pdl1jrtQjbizlP04SvdHpUWgG/FGI9ZCklac7j6c+CclaiswizTmnSwKrAHV/yuukMxxocsgySt2x8ynp4gTd9FKdNcGJgnHazmQuj9hivcFpWWAX9sGSRp/dIT1T+wEpXVl2nW0h04UrBa7P8ldgNW21/GGM9aBkkaW7j6PrBgJSqpMNPsnFSwKhhftRHY53aorBMxxqctgySN3X/FpwSraF/KNhc4PKlgVTDNgt2A1b6r+j2rIEkTOb+ebsMjVqKS1p1tsln+cs3GHDgJqCRN0EKM32RtY5/VhGA1YJoFuwGrqXMuxu9ZBkmauD+0BJWzb01BaR1fv2QXsMP6V0taLPT3rYQkTV6M8U3gtJWolB0p47xj1CcDhwpWBeOrLrf21dOFozHG41ZCkqYWrn7Xia0qZ10ZZ6jt3RrzL9XMDvD/ahUkaboCvJr5lKDBatnFmI7BqtLSAf2KlZCk6VuM8X93KbqUqpHB6rL+bsDdwBbrXindGOOfWAZJmo02PImtVlWxJWWd0QLTsF93sP9De615pYQMHrcMkjQ7CzH+Lc7IXiVrzjprGVN3mfWulMWFGL9hGSRp5u7FVquq6Ms6wz4duGKwijEWfYEtVtURcDJQSSqFGON92GpVFZNpsQq7+7oYdwFbrXeVjuP4Q8sgSeWQVr6w1ar8ttIzn9VYghVvvdX7EbsBq3cAS5JK4lyM9zL6nJOajTVlnlXHWPVs/T3WuTIyl66RpFL6jiWohD0jhyZGH7xusKqO8md/pwAAIABJREFU+y2BJJVPjPEh1r6knGYYrIZpasxW2PC9H9oEXGydKyEDHrQMklRaD1uC0rs4ZZ8LtNcarArWB7zUGlfGwRjjScsgSeW0M7/5tdWq/Pqyz+Jag1XBJw1WFZCWr/krKyFJ5XUoxqMtOGwlqheshrgOF2vR15dosKqALizGGI9YCUkqtw78hYszNyRYFYyvgoJ1c1RKtlZJUgXEGN/uQrQSpVaYfeZGDVYpSS93ES68XAUBOGAZJKkynG+w3LakDHSB7qjBqmDg+iXWthKOxRhPWwZJqgynxim/vgzUGTVYzQ3xQ1VKX7EEklQdMcZzq1ynVcJgxajBqqCJy/FVlTg+4zHLIEmV83VLUGq7hwpPK32uIDo7MWj5vW4JJKmSd8XPOKFVqY2UgbKCDdz7oS3kqzyrpDIIMcb/ZSUkqZq6sGAVSmsrPQ/wjTR4vWDguq1V5Wf/vCRV2w+c06rULl41QK3ycYNVte50HFslSRUWY3ywO9wavypJsOoOG6xa/R/cZT1LLQB/Yxkkqdoyex/KbNcI27Ff12BVJZ0Yo5OCSlL1g9WzdgfWLFjFGIvi8k7rWWpnLIEkVd9CjF+3L7C0hs5Cq42x2sHKS+JotgLwkmWQpHrIYNEqlNJcykQXaK0hWNlaVe4DMAB/byUkqR664LJk5dWXieJqwapgqoUd1rHUB+A51waUpFp5BsdZldVQmeiCYNVa4w/RzBy3BJJUHzHG7zqAvUbBqmOwqpIAvGoZJKleunDOKlQjWHVXC1a2WFUuWD1lGSSpdk5ZgmoEK4ANg4JVwRqB88Bm61jem5oY40HLIEm186bdgaW0OWWjC5wbFKygryvwImtYaictgSTVz7wD2MusLxtlq/z/5bZbv1J72xJIUv2cifE5Jwotrb5s1B0UrAqmWjBYlVcA9lsGSapvvrIE1QhWtlgZrCRJ5XfCElQjWA1ssWr1p6xt1q+8XHhZkmrtkCUopVWz0TtZqtOfugxW5eUcJ5JUb2/hAPZqB6u1fLNmo+WM65JUd/sNVhUOVgVzWG0G2tavnDr5nYwkqaYc7lFabQrm+Gz1BqsCW6xdOaVJ4w5bCUmqvUVLUEpbeq7LxCGC1VbrVk5dYB6OWQlJqj2nXCinrb3X5d6gVTSHlS1W5RXacNQySFLtucJGOa2YkewKrKCdBitJqj0fVDJYaUpeifG0VZCkeus4nrYywapbFKx6EtZm61ZazmElSc1wAqdcKKMVM1JWlLYMVqV21hJIUiOcsgQVDlY9Nlm30vIpEUlqxtX7NLZYldEmg5V3MJKkitmQBytVLVgVzLo+z4WTiMpgJUmasiOe78uqlbJScbB653/O22jNSu2EJZCk+osxnsOuwLLa2BumWsuDVddgVSVOGCdJzdG1BOUPVgCd5cFqtS9WeWzwIJOkxsguXIZOJQ1WhfNYLTNvvUp7gAXvXiSpObqe88tqvuAabbCqonPnWxslSY3IVqpCsOouD1Y96WqD9Sr10eVBJkkNYVdgaQ3MSlkIYegvlncvkqTpCZ7zKxOsVuoKNFgZrCRJnvM1QrC6IGB1DVaSJJWOg2orGqx6zFmvUsssgSQ1Q8sJQsuqLyt1V7hIt62XJEmz1zFYldXArGSLVfV4kEmS53zN1sCslLVGSGHyIJMkTU/mOb+sBrdYdQxWVTrAlv0jSaq7rsGqMsFqpekWWtar1Nw+ktS4e2qV/VrcNVhV8s4lepBJksFK5QtW72ywzI1YKRsMvpJksFJpt0vWHSGFSZKkqXKMVTm1RklcbsQSOwdbrYIkSeUMvNmQH1N5bLQEktQY0RKUUjbKJ2yxMlhJkmYshLDFKpR38wwMVpnBqmrmLYEkeSOtkgarrsUxWEmSymiDJaiOlSYIlQeaJGnGNsJGL9LVMk9xV6DKv90kSTV3BjZ2HbxeGV3y/sGirkA3YrnNWQJJaoRNlqC0CrNSoLgr0GBVYpmLZEtSU2z0mlytYHV6QLByPHuJ2SwsSc3QduhHyS/HxWyxqqAQwnarIEn1FmGbVSjz5hkQrAqSVcd6ldtml7WRpNrrwGarUObNMyBYFXzMrsCSp+RTBitJagIHr5fX4K7A7ggpTKVhsJKk+nOMVXkNbrFqGayqJnoXI0mN4PQ6VQxWBZ9ZtF6ld5ElkCRpZvqy0jtL2rQMVlXkU4GSVGMhhL1WoVrBamloVVGL1YL1KrcWbLEKklRru3D6ozIbmJWyYVKYyqXjgEZJqrV2HqxUXoO7AkdJYSoHl7WRpNpftbdhi1WZ9WWld7oC5/rT1TnrVW5diCGE3VZCkmrLsbTlNjArFc28brAqvwjssQySVFvOul7VYLXBYFU5GdAGW6wkqb42WoKKBqtjMRqsKqYLcdG5rCSpzlqWoKLBKl2olztrvSrBVc8lqYZCCFdklqHszhYGqqV/M4NVFdn/Lkl11G5f3fWJwMoFq+7yYNXTYnXGelXCBksgSfXTWly8DINV2fVlpZXmsTJYVUQI4XKrIEn10nF1jcoFq4yeFiuDVSVF4CrLIEn1kvlEYOWC1fKevyyE0PvFZ/PArAoEq32WQZLqpetQj7LrUDDGqn0+GBc6bd0qwScDJalGQgjeMJdfYUZaXB6sMoNVVdlcLEn1cqMlqGawYnmwCv0fP2XdKmHOEkhSrVyBTwSW3anCMLX8vzv0tVoZrKohhhBuswySVBvzlqB6waowZPXMZXXSulUjWLXgJssgSbVhT0T5nVw1WG0a8ZtUHh3YbhUkqfpCCJcw+KEylThYdXuD1an+hZgNVtXhY7mSVANtuMtUVc1gRW+wKnDCulVGK4RguJKkiovgGoHVcGKlMJWtJY2pPNIG/JCVkKRq65yfY1LltnqLVQih6KnARWtXfunu5norIUl1uVdWiS1S8FRgt2gjdvu/+bj1q8yRaFegJFVYCOEDVqESjq+WhrNRvlnl1PUuR5IqrQW3WoVqBquuwaqe5kL4sFWQpGrquERZZYMVIwSrY9avOhbBGdglqbqCJaiEVbPRO8FqW3/KMlhVS8sSSFIFE5U9DvUMVsdi7O0nNFh5tyNJmrzbLUF1g9Uog9ePWr/K3fX8rFWQpEqdtzdgj0OVHO0NUQMHr4fQ1+BxllVWcFbpXG0JJKlSdlmCyjiVstE7CqaqurDFqiAyH7GOlbv7mbcKklQZP2EJKqM4E23aNDhYDf1DVGY3WgJJqozdlqC6wSoDOH16cLDqGKzqwKdLJKkCLgphF8W9SapIsFq1K3CTwaoO2iGErZZBksrtGPyIVah2sGK1YHUqxt7PH7aOlROByyyDJJXeNZagUg6vGKJW+FhvOluwlpXzUUsgSeUVQtiXboRVDQv0tFgVTbXQF6wKplwoTGgqtwzmQ953L0kqoRZ8wGBVKUNnoWyIrzlkPaulm4fom6yEJJVTB66wCpVyqOBaO1ywahus6uK9lkCSyieEcDO2VlU+WDFssFrs/5q3rWclZSGEayyDJJXO3Qaryhk6C/UFq9j/ZKDBqppiC+6yDJJUHiGE7cAOK1H9YJUNG6wKBrCfBE5Y0+rpwD6rIEml8kGcFLRqTqQsdIGhx1hB4ZqBtlpVUAYxhPARKyFJpXG9Jaicwgw0P0qwKlja5k3rWj1diBm8x0pI0uyFEN5HYduFSq4wA50dJVgVeMu6VtaGEIJTL0jS7N2Og9ar6K1RwpPBqubSnFbvtxKSNDshhJ2A67jWJFgxarAqeDLwKAUDt1QZO1yYWZJm6mdx0HoVnUwZ6ALdUYPVgKVtHGdVXd10UEuSZuMiS1BJI2efbISvfcP6VtrFlkCSpi+E8M9wbFVVvTFqcDJYNe/gliRNUeaNba2C1WraBisPbknSxG5of8kq1CtYrTZQbpQWq9M4UWildT3IJWnaN7SXWIXKejtln1G3+WAFs5gdtM6V50EuSVMQQvi0jwFW2poyz4rBqmOwquvB/stWQZImbo8lqFewGqabLxvxl7xunWthZwhho2WQpIndwH7GKlTemjLPisGqYKLQQ+SrPKv6HGslSZMJVTsy2GklKu1EyjwXbtv1BqsQQtEXHLDetbB1awg2U0vS+P1i13mrqu5AUWDqrDdYDfgCuwNr4iR82ipI0viEEK4B5qxE5a0566warBaHSHGq9EngLqsgSWPj8mH10Jd1hn3CM1vDL3sTF2Sukx9xgWZJGsuN6k9hF2AdnGQd6yNna/y+/da9NlygWZLWG6q2bt2TwU1Wohb2rycsGawEcMnGEG60DJK0RidP/mx3+N4iVSxYjWKoYFUw7YLBql7iWfiYZZCk0YUQfhLYZCXqG6xGScxrbbE6BByx9vU6N7RD+CeWQZJGClVbgPfg2Kq6OELP/FUZhUv8rS9YhVA4JdZr1r9eOnB5CMExApI0vH9uqKqVvmzTZbj5q0YKVgO8av1rpwt81DJI0upCCJ8AXB6sXtadbYYOVgXjrAxWtT1XhF+1DJK04olyE3AdtlbVPliN2gKVjbAT9X7oDHYH1tWWEIKD2SVpsF81VNXOaynbXBCSRn3UM1vnH/GK26GWInCTE4dKUr8Qwq8x3Hq8qpa+TLOW+TNGClYFHcl2B9bb5yyBJJ03F8KHcVxVXa27G3Dk7zkdY+83HASOui3qe2PWCuHzlkGSIISwexHutBK1dDRlmnXLRtypiprF7A6ssS60g/NbSTJUbQR+0UrU1isDroGTDVYDvOz2qL29IYS7LYOkBvsVS1BrL48rII38fbG/O/Bl4JzbpNYi8KEQwjWWQlLTpCloWlaits4xxkaibA07WO+HOthq1QRd4GdDCNsshaQGhapPAZutRK29TMHk6mtdUXtNLV2h/xtfcrs0QgQ+l8YaSFLdQ9VPA/usRO2NNcOsKVh1+pOcwapZfsUSSKp5qPrJDG7ASUAbGazWMwA9G9MfdRp40W3TGK0Qwr+2DJJqGqruyeDW7tp7g1QdL6YMc4H1bPhsjH+crVbNMme4klTDUHUXcLehqjEKs8sVJQlWL7p9GhmunEBUUl1C1e0ZfBi7/5rkxaJgtJ5lZcYZrE5gq1UTtUMIv2EZJFU8VN0N/GjXUNUkL6XscoH1NlWuK1i1hkh+aoRWy3Alqbqh6gPAB61E47w41lA0jp/R6f8BL7idmqmbh6vftBKSKhaqPgF8wEo00kQyy7rDWU+T2UnDVaPDVRZC+EIIYZPVkFR27RB+AbgOu/+aGqpO9gaicTyxsO5gVdAd+Lzbq9k3gBn8egjhekshqbQnqhD+RYTLDVWNNbGssu5g1aawO3DBbdZc6THlnwkhvN9qSCpZoNoYQvhXwHYHqjfWAgW9a+OaX2Pdweps8YdstVI3g3tCCJ+0FJJKEqouBX4N2GA1Gu35ovjSLkuwgnztwII/Wk1PVvkNwJXtEP4v1xeUNONQdVcGv2QlVJRRMmCxTMGqU/xHH3fbKe0fm4BfCyFstRqSpq0dwmcz+LCzqStlk4k2/mQT/NnPuv3Us7P9iuOuJE1LCGFDCOELHbjI8VQalE3G9TTgNILVc24/LZdObB9IA0claZKh6i7gX1E4WkUN9lzBtWncjQgTcxA44DZUgQ1pvqsrLYWkCYSqXwc+ZCXU40DKJhMNQdmEf5jdgRp47gP+cTsEB5NKGlegujmE8AVg3mqIITLJJAbdjTVYbSx+E4tuSw0QI+xuhfAb8yHcZDkkrSNUfRb4GHb9qdgiA8ZXTaLVYNI+BnjR1GoJP+vCwRjjH1gNSSMEqg8APhSj1TwJfH0q++QUfsdVwM+5TTWsOfj+uRjvtRKSVghUlwGfADbjE39a3Z8CL1cyWMUYCaHvx/4isNvtqhH2yxPAX8cYX7McknpC1cczuNl5qTSkN4Gp9Ya0J7DDF334aYOVRsnnwJYMfiGE8DrwZzHGU5ZFanyguh34caBrqNIIni764DyFy/KNpWVg7ObIZ2NfttdvAT6TPiWNKgMeijF+y1JIjQxU12XwCSf51BosAL8PnOy9qEwqmU/z6YmfBG5xG2s9++s8/OWZGJ+xFFIjAtUu4J/goslau8eBvy26W69DsNoH/LzbWOuVQejC38UYH7QaUg0D1bZtuzlx4tNMdhJrNcNXgKmO1Z1YsBowiP3nU8CSxrKbAY/EGL9tKaQaBKoQ9gCfAlpWQ2PwWgpWU9We4AFS9OGnDFYa843B7a0Qbg3w4mKMf2FJpEoGqjuAeyZ5TVIjPTWrC9PEzJGPGlsmA34ZuKgBF/yl1wJwpgWngZOdfFz/ZmBb+jdLbd3RgZlrl7oHuy14ezHG/2lFpEoEqo8D16dA5flP43QU+O/M4OnRiY+xKhggVstZctPM4QspIb8EvB1jPDrkyWU3sAO4pgVXdmBrKpsnmrXv14fJx2G9ZDmkUoWpLS346Q7sSZcIz3OahB8CP+j9YIu8daPSwarAdvJWq7r0oYcWHOnAd2KML4zrh24M4d1n4V3ANeluzjlb1pbrzwBPxxi/aTmkmQaq95M/Gb7d85kmrEPeWnVsVnf2EzVgEPtPAO+pw7kCuD/G+N0Jn5CuAu4CLvcOb03pKnTzbXUAeCDG+JxVkaYSpvYBd6YbRDx3aUoeA74xy2AwC5eRz01SdftjjF+e8onqg8BtGWxy5uE17/Nd4Ang8RjjQUsijfUcdTFwXboZ3IDnKU3fHwOv935wJ/kYkVoEq23A8f4P/0w6+Koq2wJ/eCLG12d08roa+Clgo3eBa9yA+bi4ReB7wAsxxiNWRVrT+WhbOp9/kHylEMOUZuV5YKZPiIcZ/u5ryVcmr/B1md+LMR6b6QYMYS/wjzNo+1Th+kqZ5euP/RB4IsZ4wpJIK557tgI3A+/LYM4WdJXEnwMvzPTYmHYS6TnyqjxhaAC+G2O8vyQnufeQL04aPK7WvZ+GtJ8+A3wjxnjWqkgQQtgMfAy4Op3PvZlTmRROCDrJ5WtmHqwK3Ah8vKpbsAUnF2P8/0p24vtUBvs84Y3dSeB7McYnLYUaFqbuJh+A7np9KruvUTApaMGcmvUJVgPe3C8Cu6t6zmFKa9alAaE/TT6m6iDw9Rjj6QFfuwn4VWy9mpQu8Hba9vsth2oWpG5swfs7+fBY1+pTVbwJ/EFZgsFUFTTJ3UrehVVVMcb47yZ8orsK+CT9rVCHYoz/Y9D3tUP4VCfvarX1anLHTxdYbMHpDjwcY3zIsqhiQepjwNXp3redusI9Z6hqvgk8ukreqGewKtAib7XaVeENuhhj/A+T+uHtEH6tk7dU9YbUEOD4Yoy/N+h750O45Vw+JsKBpdM5nmILznXyJYz2k0/p8LqlUQkC1AbyCTrfRT5J53wKUo6VUtUdIm+t6hiszrsD+EjFN+y5GON/mtAJ8VPkk4MO2oZ/utLSLSGEncA/x67BqR9f6e6/Qz5G63AKWy/EGN+2PJpgiNpCPv3BvnTTujWD+RSgDFGqm78DHuoNVRn5fDqNCFYFY63myFutdlR8406s5SqE8G+KPp4u3C/EGP9siJ/xOfJxE5rhNS+9InAqha03yMfNHYwxHrdEGuG8sBXY24Y9i3mA2gVs4fwKDYYo1d0R8taqhd5gNatumjK1YNwJfLgmG/pL426RCCFcAnya/lXgA/A/hv19IYRfzOBSm/7LY9n0DgGglQJXB14ln1v3CPl4Oqd9aGh42gQ7TsNF6cZoTwsujrAl7TfR7jw12HeBB8p291wW88A/JT951OBayV/FGJ+awEn2x4HrWtDqwOI8/P2ZEX9PCOHnMrjaE3E1rqvLglcETgBvka97eJg8hJ2a9US1WtcxvZ18DOXmdB68Crg4y8+F890Lg5PHrHTeUeAPgbO9F+BZDiou25ibOrVaBeDZGONXy/jHzYXw8cV8HjFVfz9bOo47wBcHTcOh0garT5JPuBm92ZFG0tdatTQ/yCyD1UznKGn1f+gx8m6POojAu1ohfL6Mf9xCjF8DHve4rMV+1iUf3/fvDFUV3IAx/glwn6FKGsmRlBku0GX2j8DPNFh1+v+Ac/TMQ1F1XWiHEH4rhHBbCU/ofws8iU8L1uDaHH/HMlR6A36XfJ1KScN5NGWG8oSasvwN3f4/4jHyWa3r1qrwY60QfiPNij4VIYSLQwi3hBA2rnBC/7rhqrqyfBv+OytRi3D1gzY8YSWkVb1NQWvVUqaYtVJcTGs4G/tq3owxTnTq/RDC57J8EsClQa8d8vmuXiv6+nYIn+zAlR6v1QpVXfhdu//qpR3CL3dgp5WQBuqbZb1s5+aZK0iYj5LP61NXu0MInw8hTGROqRDClcD27oWDYVsZfCqE8MGi71nMx3k4aWV1QlXYBf/FUFU/izH+d6a7ZqxUJQcp+ZChMi+w+Ujdb0yBfxlCeP8EfvZ1AwJsBO5Okwr2iTF+CTjjcVt6IYP73nQy0dqKMf5HXIZKqmQ2KHOwegp4pe7nzwzuSY9bj9Nqa9N9ZoXP/TeP29J7ayHGv7cM9bYZvoJjH6XlXknZwGC1jj+m7q1WdKGbwVUhhM+O8W73qVXudtsrfO/ZbfClkofuxsqgk1oWVXMnYzzQhqcNV9LKmaBlsFoxZPT+QS8AzzQgXEXgohDCr6/0BN+InlrphBxCmB/0uWP58jg++l2+gzXrwletRHMsxPhX2D0vkbLAC0Wf6BisRvZog3acefJxV+uekiFNo/DWCuEqW+X7v0e+XIrKE8BfjjG+aCUa50+x1UoqzALtct4El+7i0Ws/DegS7NlPfmUcPyjG+KUWvJBduMFDC04P8zRZjPGL9geWRogx/m/L0DwxxoOpS1BqqkdSFuizWMaTdUWKugP4FPkipU3RHeds2iGEHwEuBZ6OMT429Pdt2nQNZ878I4/rmd79hG6+qLcX1yYn6xB+C5e9UfOcAr5Mz3J3s15oeZVzdiX+sCPAw027noYQfnOMd73fiTF+eZRQBRBPn34RuwRnbdFQJeDrmV2Cap6HqxSqSh2susXFfbOB4eo3Zv1HxBi/6J3yzA7Q0M3H2KjhYoxPUL5xutIkvcmARpWtBquxWAAeauCO1Qoh/MtZ/xHtfOCgd8tTFuDMoGWI1Dxd+AtbrdQgD1GwCkEXOGGwGpungOcbuHNtbYfwczNNtTF+Cx/7nrpOPrZAAiDG+GK3nON1pXF7noLJQKsQWrIK/oEP0cClHjpwdQjhzhn/GX+Ad8vTtBjzOcWk5f6PJVDNdSnooSr72KrKBKuCWSz308wuwQh8JISwa5K/JISwfYW75WPAqx7zU/MVS6CC49BjUHX3EAXTK1SlRaX0weo0A1utDjc0xf/SJH7wXAg/1Qrh/yafoPS3QggfHXBS/wouDjuVAzPGeNBKaIDvWgLV1GEq3nhSiTFWnRh7/9CTwINNveaGED4zzh8YQviRRbixmz9x1CVvHbs5hPCFoqVv5uGvM9cSnHSCfsQqaJAY4wNWQTX1YLrGG6wmKYRQ1ETyOM0cyA6wcy6Ej43x572b4ukUAvDrvR88E+OzXXjS43+S1834LcugVRyzBKqZ59O1vdKyiv+xD1LwKGYTLryLcMtK46FG1F4l2P5swZX/r3FOnUk5Zwm0qssv/2OLoBpZYEBPVMtgNTkFrVYHaOZAdoBua0zjrVqrP759zYCFob+ETwmOWwD+2jJo1bur1147heMdVR8PpWt6X0ip2h185cbJFPzBDwCvN3Ev7MCGdgi/MIYf9cYqkw5GoK91LMZ4BPCuecybNcb4kmXQkJw8VnXwerqW99lYwTdTuWDViX1Dgc7R3IHsRLg8hLCuxakXY/wzVm95uqXw98d4AHjO88LYnLYEGvr4j/FPsNVY1fcgBUMgMqq5UG3lglUIheeQ58iXXGmcbt6a9Nkx/JzHVzpBt1dYKzDG+FWaOdZt7Ls38PeWQSOexJ2JXVX26KCb8251j8na/OEPAIcaumPOhRA+ss4736+38ubYwnC1uMpTgDHG/4jjPdadb2OMT1kGjXhTdNgqqKIOMaALsF3tm53Knkx6HRu0gRrijvX+gMUY/wh4DMiWjbkKwNEY46rj2N4D/y8rtGxpVXYDai2+h92BqqYHKJg2JKPazbB1PBg/Ctzc0J30eIzxv4zjB82F8OOLsAV4O8b4/aF3qHwKiH/h+WJNx+LTMca/shQaeecJ4QuGK1XME8Df1PGN1XH27AeAIw3dUbeFEHaM4wctxPjNGOOfjxKq4J31BP/EadnXFKx+YBm0RmcsgSrkCAN6mFo1eHN1vP4dptldgr806z8gxvhKF/7Ic8dIOmn6Cmkt3sxssVJ1PMCAsYF1mHW6FsGqIOE+Tt7M2ETtEMK+EoSrg5vhy54/ht6HT1gFrcNjPjmiiniCGixbU/tg1Sl+I/fT3KcEf74Mf8TJGPfvht/zPDKUty2B1nEj87wtVqqAQ+naXL8gUsf30+1/M0eKNmBThBBuLMPf8UaMJ2KMv41TMay4uTrwomXQunYix1mp/O6nAWOgaxUUC67cTwGPNHQH/qmS3VH/Tgve9Lwy6JrIM5ZB69EpeGxdKpFH0jW5z+6avdF2Azbm/cClwJ4m7cEZEEJ4b4xxosv9tEP4hQiXdc93QywCz8YYv977tYsx/kEI4X3Ah3C+q57SxHOWQev0Zga7ux5bKp+DDOhBaqVP1u36W3cn0gZtVFdUOrl+eJK/I4TwoQ5c3r1wbEcbuDmE8PlLQ9ja+z0xxvvIF252PMj5E8tJq6D12gD77W9XOS9H3E/BAzoZ9XgKsInBCuB54L4G7tBZaiGa1M5zJ8V3xxFovwmfK5pXK8Z4IMb4/wAvZs3ZBwfqNHfeNY3ROXjJGxaV0H3pGlyYuGp54aU5b+x+4IWG7dARmFiw6q7elRxYYV6tGOOfzcFfZPnx1dQLQqC5T69qnAd7jKczuwFVLi8woAuwzuOQahusuldc0fvmFlNyPt6kvTqD+RDCeyb0s4d5CmkuhPAzgz55JsZnOzH+Trt5g7cQcRHyAAAUpUlEQVRDlreCPwv80POvxnSz43qTKovj6Zq7WBQ8Fmv8xuvbDfPqq0XNjAdpWJdgN28NuntCP/uxYW6kgatW+6KFGP8yxvjbLXirxgdbIH+dAr7difHfxxi/GmM86zlY49DK9y2pDO6jYFx6Rv0HPLcbuLEfA3YBtzfoPW8PIeyYwJIp9zN4nNVyG4b9gYsx/k+AEMIvARdTjy7CACx04aUY41c932pSOnkrwS4roRl7mAE33k14wKL2wSrGSAihKEnvAq5oyE7ebcHPAP9jzLU9HUL4E+DnVvq6NPXD5hjjqRF+9lLA+pkMru1WM2B1ycdP/aXrAGpKXBpJs/YqBT1DTWipakywCiGwAeiZJOhU2vA7gS0NuZPdOaHg+nII4RvAT6z060cJVT0//y8ANodwxWn4h8DGMtc5nTyeX/q7pWmag2ML+U2Ig9g1CyfTtbXRXdKNehKrIDHfBvxYg7b1IzHGb04owG4Efm3A730wxvh3Y/xdlwEfzfKuwjjDCREDQAsOduDrMUaf7tOsbyTflcEnui4hpdn4Fs1d7cRgtcyP0pzxVgsxxv844RP7lS24B9jRgaPkgWNiCwzvDmHbMdh3Lt+GS7PrxzHfsYdlx8ox8nX9Hkj19CkslSlY7QU+jcFK0/cw8O2iT8wBCw0qRKMGr3eLw9W9wEXA1Q0IlhtCCFtjjBMbhxFjfAV4ZVrv6c0YjwNPphchhE3k3bubgL3A7hbs6sDGDDZ08xUUCv/0LB9gfoa8GfvtDfDGuXyM1BnglCFKFeBTgZqFl9K1tPiOvmHFaNxTgQW3cafJ+4QvAnbU/L3HdDf7/1Xk7ns7EGKMR0cIdqc5P5fPK0jN4pqTmrYj6RrqjWdTgxXkTRY96xMdSGn7o9R/iZVSD9YPIewEPkE+2D6kjy3dib8QY/ybKhU7hLAZmBslHEprlZ7UdVkbTfF+nXvTNVRL5/2mvvEB460+ALy/AcHyyGKMv1/CELIb+GcMGB+SQUitbl+LMT5V4jB1B/mYr94W0NNz8OC5GO/11KOJHd8h/FsHr2tKfgj8wDL054vGxuwBO8mTdX/vHdhxZT4WqWz+EStcEJY9/fcPQgh3lTBQbQ0hfJ78gYjt6b0sf8134J52CJ/11KMJntsMVZqGJ3E5LoNVrxj7HhyL5M2ar9b9vb8Kv1zCnXHrCLn4Q2MKQ7tCCJeGEC4J6w+b/5K8ez2uFA47cNGGEN7r6UeTOrVZAk3+EsK9vfta1vRQkbSb/OZDCLSXNSckR9MOs5V6D2bfuC2ES4/H+EaJ7rRPApuHDGGhHcLPL8b4lTVs9y3Az5PPvh8v/FQ4B/xFjPHlEX/mr4zy9QvwXuBBT0GaULBynJUm5Ui6Rh4ddNfbdI0Pl4ucn4ZhmdfSjlPnBbg5Af+0ZH/S94a9IKSWn+1rCFXvy+BXU2jucn7Oq5j+fxv4uXYInxvxR28e5YtbeYiUJnSPIk3sknlvukb2udj6GKxWORM9RQP6j0MIP16a2+wYnwCeHfZPB/aP+F53APcMM1N7B7aFED4+oYMubIa/9ajTpA4lS6AJ+WG6NvZpA29aH4NVz0W96MP3k88mW2e3hRD2lGg7fBX4brbKvtmCszHGr43440dtobtx2C9s5ROJDnvQPX4sxrc86iRVyMPpmlho0foYrHotTf2SFSf0Z2v81iPwCyULuQ904T+TLxuz1FObAVmWt1R9bzHG/7SGHz0/4sEx9DiVxRi/RL7cTVjlePvaQsXm4lLlTuqOr9K4PcuAHhxDREGesARD2UW+WPO+Gr/H12OMf1zS0DsPbCBfm+/MOn7OzwFXDfv1LTixGOPvjfg79pGvlXgp5+eifRu4N8b4vIeSJq0Vwue7DX8wSWP1Gvniyod6A5WD+QxW67UvhatdNd4X7o0xfq/WO3wI/2bYr40x/ra7vSq4j38eg5XG41AKVa8ZqoZnK95oqf2H1HeR05jB3SGEvXXeiDHG327lLUhZwY1FSB9/01AlqeFOpWte3xOAhqpVbm4swchuBT5C3s1Ty+wBfDEtZlznu/qtwPuA3enu/hz5Qy0PxhiPu5urwvu2LVZarw7wd8CjlsJgNd6EESOtEIrS+d3AB+v6vjPodGL89+4BksFKjfR98vmqeq8NgC1WQ1xDtcIJik6MRUW6l/yJtVrqQqsVwm+4B0hS4zxgqDJYTTxcrbBg8+N1DlchhF93D5CkxnicgmkVDFUGq8nYsKH3IwvAD4Bnavyu51O3gqTqnNQd4qG1eCZd0xYG3GzLYDVm584VjVY/mdL9izV+5+0Qwr92B5Ck2noxXctOFoUEQ5XBamI6nJ8CfJnDDHgktUbmQgi/mSbqlFRiXgQ1oqWphA67PxmsZnbS6vYX7g3yJtSDNd9Xfi0tZCxJqr6D6dr1RtEnvZM2WM36rnB/2kHrvLhuyOCzG0L4oHuAJFXaW+matX/QF5y1RgarEhTvZfIm1UM1DpSxAx8IIfy8e4AkVdKhdK162VBgsCpbyCjyfNphj9b4fXczuCKE8K9CCLvdEySpMo6ma9TzRYHAMVUGq7J6lryJtbZLo3TzpW82AL8UQrjLTS5JpXc8XZuetRQGq1KLxbOzP133cLX09jP4cAjh10MIO90bpJmf1J3HSiuFqqcHBQFbqwxWpbHC0jdPkje5nqjz+0+tV/PAZ0IIP+4eIUmlciJdi54sCgEGKoNV1cLVE00IV0kEbm2F8G83h3Cle4U0kxsdqShUPWEppsMV0MccrmKMhNDXEr+0puD7ga0NOLF3T8MnQwhd4H/FGA+6d0jSzEJV4bq2tlYZrOoQrmIKV9saUo4M+HQIoQN8O8b4mHuIJE3FcQa0VC0FKkPVhHKAJZi6m4APNChcLR3IAVjswiMxxu+4G0gTu7n7TRzmYajKB6o/OeiO11A1ObZYTd+TaZ/+AHBRU950GuDeAu4MIdxBvi7VX8cY33KXkKSxOYpP/8325sYSzMz15N2Cuxpcgww41YL9HfhOjPGYu4W0Pq0QvtD13N5USzOqPzvohGuomjxbrKZgC3C6f4d+Nn3o/cAlDS1NF9jYgeuA60MIJ9vw7CI8F2N8rfZ3NSHsBU7HGI94lEhap7cYMKP68hOupnButwQzdxV5t+AeS9F3Y/U6eXP2/hjj2xUOUBuA3SlAXwbs5fwYu2/HGB90k2uM+9sXPLc3zkHy7r+Ba/8ZqqbHFqsZJYZlXgYWU7jaZ4UuOAdclsHeLoT0lOUR4AXg5e1w4miMpVrsOoSwJQWmLSkw7wV2AK10cotprJnnOUnj8loKVftXOpnKYFVbnRhphdC7s+8HvkveLXiNVbrgpBA5H0a2A3dk8N4T58NWFzjUhtcW4UXyXteFpVeM8dwYAtM8+cD7uXTMtIG9bbg0wsWd/O/akL58+d/7ztvw5CZpAl4k7/57Y8gbeRms6meFea7eSOFqAbjBSg0dtgB2LeYPAdy2VOZ0UgnL65xBp5vX91yq8wWbpgXtTn5MzKUglS0LS8tPVBHyZsYx3BjaZSNpLZ5JoerwoEBlqDJYNSpcDbibOAx8J130b7FSaxaXBbDlySeQtyxtKPqmTmGGG096MlhpWjIIXlBr73Hy7r+TA24+ZbBqpm7P3UVyEvg74Cxwp1WqtzmDlSZ0XlFtPUDeUrXQE6jd/gYrrXAiXCDvFjwH3E3eLaUaWrAEkobTAe5NLwO1wUqrGTDI8F7gDPmg9s1WqZZssZK0mlPkrVSPWgqDlYa0wt3Go8vC1S4rZbCShtinomWojRVnU5fBSmvzLPk0Au/Hua4kqSleS6GqbyUKp1IwWGkEc+Sd6d3+A2wpXF1vlSSp9jfUPyRvsepjqDJYaQQrDGg+BHyTvL/9dislqVeabsGuwGp7OIWqM5bCYKXJOwN8m3xahve7DSUtZ0tGpS2mQHX/CsHZbWyw0oTcn8LV3eTr0UmSqusI+ZPgTxmcDVaanaeAEylcXWE5KsmnAiW9mkLVa0WfzMjH3p61TgYrTcVry8LVTZajcpz8VWq2J1OoOjroC7qGKoOVpu4o8DfAceB9nF/dQOU3ZwmkRuoC95GPqSp82MDxVAYrTVHBARfJF+U8iuOuqsSuQLlPNY/jqQxWKuOtzoC7maeAY+QtV1dbqdIfgLYuSs3yEnlL1YGiG2YDVfV5Uq94uGoVb8QDwNfJ50JRudm6IDXHw+ncfGCl87oqf8OsKuukjVhwMJ4mn+/qCHnr1RarVT6LlkBqgpPkrVSPrHazLIOVSnJx3k7e/1fgEeBwCldOyVC+A9BWY6neXk2h6lVLYbBShSyFqgHjrl4lXw7nfbgUTtnYFSjV18MpVJ0q+qRP/RmsVAHdwQfsKfKuwaWAtc1qGawkTcTxFKgeWylQGaoMVqpYwBpwN/QY8FYKV9daqdlaNFhJdfNCClUHB4Uq1ZvbuAHhqsBB4K/IJ6bzpmm2DFZSfU65P0zn1oMrHfCedOvNFqsGHOkt8qcHeyySTyj6FnAXsMdqGaxUj7tlL9xTdxC4H3h+0DaJ6dWxVgYrVV9n5RPu88AbKVzdZrUMVpJG8kgKVSdWusGVwUo1tMLA9hPAt9Jd113ALqtlsFJlj/NoFabiUApUT610cLsxDFZqgNbgO6inloWrm62UwUpSoSdSqDoy6AvskjVYqUEWVj7wjwB/A7wO3ImLORusJC0/Pz4APL5aoDJUGazUQN2VA9bj5OtZ3YmtVwYrSU+kUHV4pS+aA85aK4OVGh6wNm0iO326KFwdJm+92p8ClmOvDFZS0xxKgerJQV+w/ObUUCWDlSCFqhXGBDy5LFzdasEMVlJDPJpC1bGVApWtVDJYqdAqYwKOAd8kX3fwvcBlVsxgpZLtTCFssgpj8TrwIPDcoC9YPvmyoUoGK61qhdar54BXyFuv7kg3azJYqRycf3J9FoCHyFupzq100Do4XQYrjWSVge3ngO8DL5O3Xl1nxQxWcn+quOfJW6kOrPGmUzJYafiANcCB9LolBaydVswLodyfKuZwClSPr1bYaKiSwUpjs2MH2ZEjg04qjwMvkXcN3oGLe3sh1ExcAeFVyzDKfeND6XVy0BcttVA5g7oMVhqvFKra5Ks3FzgJfBf+//buaCeOKo7j+G92oAYtEdsYrEpbagvVauO9T6Ax8SG89nU03pj4KHpj0qipuoVSaKFFaCsRoQUElt3jxfw3TCvMmV3OLjM7308y8WYrMDs7+905Z89oyeKK4cEcYsIKARFVuT2woFrNU18AYYWeOfA/ZNW2aQusN9lrx2OmMQIj1LOtWVDN+XYiV6hAWKFo5uxT4U3bXmWX/F/MsCkIq37YkfS7bY2jHtB+ITLsB8IKRdaQ9IuSJRpuSvqIXfIirliBsOq5PyyoMm+Y7AgqEFYokQ1JP0paULJy+zV2CW+E4HjqsXklK6ev+nYY86hAWKGs2vOv5pVcvZpgl/BGCI6nwJaVXKVazPNgrlKBsEIpxMpc82XRtmkLrPEK7yfeCIEwnlpQHTsxvZaKqQvK8ZVAgLBCUTRTB1jr+MCas+1D285XdT8BQYyN1bSxUbW/+m8lQ3513wPT86iIKhBWKKWDfA+rS7or6YYF1liFdhFXrBBOtaJqw84dd7JONemJ6Qz7gbBC1RrsN0mzFlg3JL1OWAEcTy/ZtJi6o4wbJbeDionpIKxQCRk3Mt1Xcmf5GSX3IPxAg30Fi7BCMKNS7fng/nkbdl6YkbTne1ERVCCsUCk5Tnp7Flj1VGCdY88BxxvQqFpPBVXD92GtRlSBsELVxcqcxN1QMkRYl/S+BdYg3SaHK1bgeDramsXUrDzf80jHFFEFwgqV10wFVsaciKYOv/kzbZH1Dm+EwMAdTysWU3N5HswVKhBWQI7A8ixD0F6mYVLSdUlXyvo3s44VQjorRVvl/fUfKPl28GKekGr/l6gCYQV0EFjtr0d7Fhp9ywLruv2z0v2tQAhb5Qv1psXUXUlPfEEl/zkBIKwAb3TEsWrNZtaJ9Iltv1pcTakkSzXEPM0Iqyy9sSnpngXVM19QtcQ6VCCsgICF1cz7bvFM0i1JPyuZhzWt4s/DavAEI5Q3pP1/iv0rruhwKN/7so5SMUVUgbACesgzYbWlZPLrrIXVlKRrkoYL14yeT+tAJ9ad24yiqGjDgQ0lN16/Z2EV4jUOEFZASK38J98V225ZXE2pQMs1DEuPeTYR2F5Bzu1rFlPzkrbzhFR6uI+oAmEFFDuwtiXdtu2iRdbV03wN1KTakGfCLtCFvyS9fUo/+0DSgsXUozwx1RIrpYOwAgobWO2TtecT7yPbfrK4uirpwin82m7HuWWePQQ2o2QIvJ/Tkh5bUC1I2snzD9rjla/Ic38aoGRYQwcDaVjJxI4O5mmMS3rPImu0T79m3Tn3A88WQouj6KtW7y8CPbeQui/pqe/B6ddijrXqAMIKKKouJsFeSW3DPfy1vnPObfMMIfiJPYo+kfRxD/7XDSULeba3XAe6E8N9IKwAYisZpZi0wJoM+fOHpHqDq1XoXViNSPpS4YYDFy2kFtXByF1k2xlJuzwtIKyAwQ4r6cVbY3i8ZnF1WdKlE/74A+fctzwL6HFcTUj64gRx9VDSksVUrm/1tVIxFYnhPhBWQGVfBB2+85xNBdblDn+cc859zV5Hn+LqU3V2L82lVFDlvu0gw30AYQWEMmKBdUnJMg5nMt58Wk3nvmGXoZ+Goujz5vFXWfeVfEP2oW3/5g2pVvcfTADCCqjqi8Opo8nvscXVRUkTSt2vMJa2Dpz7nr2KUzmWR0Yma7u7n9lxvClpWYfLjuQasXs5pmIli1YBIKyArl4oXQxzjCtZH2vBObfFXsSpH8dRNKpkmYSuP2gAIKyAYI5afDTripZzvBWhkIHlPbbTIXVO0jq7DSCsgH4iojAIofWupD/ZJQBhBRBWwMnDCgBhBRBaACEFEFYAkQUQUwBhBYDQAiEFgLACCC0QUgAIK4DQAggpgLACQGiBkAIIKwDEFogoAIQVQGyBiAJAWAEguAgoAIQVAIILBBRAWAEA4UU4ASCsABBgBBOAIvkPybpnU9JeM1YAAAAASUVORK5CYII=" parent="dNxyNK7c78bLwvsdeMH5-22" vertex="1">
                    <mxGeometry x="610.46" y="50" width="40.07" height="40" as="geometry"/>
                </mxCell>
                <mxCell id="j-x05HlP8JsFPRfZhArd-59" value="API" style="rounded=0;whiteSpace=wrap;html=1;labelBackgroundColor=none;strokeWidth=1;fillColor=#ffffff;" parent="dNxyNK7c78bLwvsdeMH5-22" vertex="1">
                    <mxGeometry x="730.5" width="80" height="20" as="geometry"/>
                </mxCell>
                <mxCell id="j-x05HlP8JsFPRfZhArd-2" style="edgeStyle=orthogonalEdgeStyle;rounded=0;orthogonalLoop=1;jettySize=auto;html=1;endArrow=block;endFill=0;strokeWidth=1;dashed=1;" parent="dNxyNK7c78bLwvsdeMH5-19" source="dNxyNK7c78bLwvsdeMH5-24" target="dNxyNK7c78bLwvsdeMH5-26" edge="1">
                    <mxGeometry relative="1" as="geometry"/>
                </mxCell>
                <mxCell id="j-x05HlP8JsFPRfZhArd-16" style="edgeStyle=orthogonalEdgeStyle;rounded=0;orthogonalLoop=1;jettySize=auto;html=1;entryX=0.5;entryY=0;entryDx=0;entryDy=0;endArrow=block;endFill=0;strokeWidth=1;dashed=1;" parent="dNxyNK7c78bLwvsdeMH5-19" source="dNxyNK7c78bLwvsdeMH5-30" target="j-x05HlP8JsFPRfZhArd-1" edge="1">
                    <mxGeometry relative="1" as="geometry"/>
                </mxCell>
                <mxCell id="j-x05HlP8JsFPRfZhArd-5" style="edgeStyle=orthogonalEdgeStyle;rounded=1;orthogonalLoop=1;jettySize=auto;html=1;endArrow=none;endFill=0;strokeWidth=1;startArrow=block;startFill=0;dashed=1;" parent="dNxyNK7c78bLwvsdeMH5-19" source="dNxyNK7c78bLwvsdeMH5-26" target="j-x05HlP8JsFPRfZhArd-3" edge="1">
                    <mxGeometry relative="1" as="geometry"/>
                </mxCell>
                <mxCell id="j-x05HlP8JsFPRfZhArd-8" style="edgeStyle=orthogonalEdgeStyle;rounded=1;orthogonalLoop=1;jettySize=auto;html=1;endArrow=none;endFill=0;strokeWidth=1;startArrow=block;startFill=0;dashed=1;" parent="dNxyNK7c78bLwvsdeMH5-19" source="j-x05HlP8JsFPRfZhArd-1" target="j-x05HlP8JsFPRfZhArd-7" edge="1">
                    <mxGeometry relative="1" as="geometry"/>
                </mxCell>
                <mxCell id="7" value="" style="endArrow=none;dashed=1;html=1;strokeWidth=3;strokeColor=#CCCCCC;" edge="1" parent="1">
                    <mxGeometry width="50" height="50" relative="1" as="geometry">
                        <mxPoint x="570" y="320" as="sourcePoint"/>
                        <mxPoint x="570" y="200" as="targetPoint"/>
                    </mxGeometry>
                </mxCell>
            </root>
        </mxGraphModel>
    </diagram>
</mxfile>